<svg width="24" height="24" viewBox="0 0 25 24" fill="none" xmlns="http://www.w3.org/2000/svg">
<g clip-path="url(#clip0)">
<path d="M6.21173 14.5034L5.37632 17.6221L2.32293 17.6867C1.41042 15.9942 0.892822 14.0577 0.892822 11.9999C0.892822 10.01 1.37676 8.1335 2.23457 6.4812H2.23523L4.9536 6.97958L6.14442 9.68164C5.89518 10.4082 5.75934 11.1882 5.75934 11.9999C5.75943 12.8808 5.91899 13.7247 6.21173 14.5034Z" fill="#FBBB00"/>
<path d="M24.6835 9.7583C24.8213 10.4842 24.8932 11.2339 24.8932 12.0001C24.8932 12.8592 24.8028 13.6972 24.6308 14.5056C24.0466 17.2563 22.5202 19.6583 20.4057 21.3581L20.4051 21.3574L16.9811 21.1827L16.4965 18.1576C17.8996 17.3348 18.9961 16.0471 19.5737 14.5056H13.157V9.7583H19.6673H24.6835Z" fill="#518EF8"/>
<path d="M20.4047 21.3575L20.4054 21.3581C18.349 23.0111 15.7366 24.0001 12.8929 24.0001C8.323 24.0001 4.34983 21.4458 2.323 17.6869L6.2118 14.5037C7.22519 17.2083 9.8342 19.1336 12.8929 19.1336C14.2076 19.1336 15.4393 18.7781 16.4962 18.1577L20.4047 21.3575Z" fill="#28B446"/>
<path d="M20.5524 2.76262L16.6649 5.94525C15.5711 5.26153 14.2781 4.86656 12.8929 4.86656C9.76495 4.86656 7.10713 6.88017 6.14451 9.68175L2.23528 6.48131H2.23462C4.23178 2.63077 8.25506 0 12.8929 0C15.8045 0 18.4742 1.03716 20.5524 2.76262Z" fill="#F14336"/>
</g>
<defs>
<clipPath id="clip0">
<rect width="24" height="24" fill="white" transform="translate(0.892822)"/>
</clipPath>
</defs>
</svg>
