<svg width="314" height="274" viewBox="0 0 314 274" fill="none" xmlns="http://www.w3.org/2000/svg">
<g clip-path="url(#clip0)">
<path d="M255.051 258.836H64.4507L64.5367 237.715C64.7542 184.27 105.568 140.232 156.695 139.323C157.248 139.313 157.801 139.308 158.355 139.308H158.355C169.86 139.299 181.273 141.442 192.055 145.636C228.232 159.718 252.513 195.494 254.129 235.807L255.051 258.836Z" fill="#6C63FF"/>
<path d="M314 258.836H0V259.657H314V258.836Z" fill="#2F2E41"/>
<path d="M156.523 164.367L164.921 170.751L173.32 245.763H193.171L186.299 160.377L158.813 149.205L156.523 164.367Z" fill="#2F2E41"/>
<path d="M121.402 140.427C121.402 140.427 119.112 167.559 128.274 168.357C137.436 169.155 172.557 160.377 172.557 160.377L189.354 222.621L214.549 209.055C214.549 209.055 199.279 138.831 190.117 134.841C180.955 130.851 150.415 122.871 150.415 122.871L128.274 126.861L121.402 140.427Z" fill="#2F2E41"/>
<path d="M176.374 244.167C176.374 244.167 171.793 262.521 174.847 264.117C176.684 265.076 178.468 266.142 180.191 267.309V264.117C180.191 264.117 184.009 268.107 184.009 271.299C184.009 274.491 204.623 275.289 204.623 271.299C204.623 267.309 203.86 262.521 200.042 260.127C196.225 257.733 191.644 244.167 191.644 244.167H176.374Z" fill="#2F2E41"/>
<path d="M198.516 211.449L200.042 226.611L205.387 236.187L218.366 221.025L208.441 204.267L198.516 211.449Z" fill="#2F2E41"/>
<path d="M210.732 226.611C210.732 226.611 213.543 216.564 216.336 217.597C219.13 218.631 229.819 229.005 229.819 229.005L237.454 233.793C237.454 233.793 252.724 235.389 248.143 240.177C243.562 244.965 226.765 251.349 219.13 248.157C211.495 244.965 209.968 244.167 209.968 244.167L207.678 245.763L198.516 243.369L200.043 226.611C200.043 226.611 202.333 233.793 210.732 226.611Z" fill="#2F2E41"/>
<path d="M147.361 40.6778C157.06 40.6778 164.922 32.4605 164.922 22.3239C164.922 12.1873 157.06 3.96997 147.361 3.96997C137.663 3.96997 129.801 12.1873 129.801 22.3239C129.801 32.4605 137.663 40.6778 147.361 40.6778Z" fill="#9F616A"/>
<path d="M136.291 33.0968C136.291 33.0968 137.818 49.8547 133.237 49.8547C128.656 49.8547 134 70.6026 146.216 70.6026C158.432 70.6026 163.013 45.8648 163.013 45.8648C163.013 45.8648 154.615 42.6728 156.142 32.2988C157.669 21.9249 136.291 33.0968 136.291 33.0968Z" fill="#9F616A"/>
<path d="M135.074 48.5764L128.656 51.4507L111.236 59.1534C110.534 59.4639 109.947 60.0034 109.562 60.6914C109.177 61.3794 109.015 62.179 109.1 62.971L115.676 124.068C115.676 124.068 108.805 139.23 119.494 140.028L121.021 145.614L133.237 130.452L179.046 128.856L179.81 51.4507L158.85 42.7937C158.85 42.7937 155.999 59.268 135.074 48.5764Z" fill="#3F3D56"/>
<path d="M113.767 61.4257L110.946 60.5831C110.63 60.4886 110.298 60.4654 109.972 60.5149C109.646 60.5644 109.335 60.6855 109.057 60.8703C108.78 61.055 108.543 61.2992 108.362 61.5867C108.182 61.8742 108.062 62.1984 108.01 62.538L100.523 111.625C99.9386 115.261 100.498 118.996 102.116 122.271C104.429 126.849 109.234 131.001 119.112 126.063L125.983 74.1936L113.767 61.4257Z" fill="#3F3D56"/>
<path d="M171.03 50.2537L180.192 51.8497L205.387 88.5575L207.678 94.9415L222.184 90.1535C222.184 90.1535 221.421 97.3354 229.056 96.5374C229.056 96.5374 219.894 122.871 200.806 114.891C181.719 106.911 175.611 82.9715 175.611 82.9715L171.03 50.2537Z" fill="#3F3D56"/>
<path d="M181.719 66.2138L147.361 51.8495L145.834 56.6376L161.868 71.0015L181.719 66.2138Z" fill="#CCCCCC"/>
<path d="M136.788 23.4939C137.437 23.3129 137.532 22.4129 137.554 21.7117C137.67 17.9564 139.834 14.1031 143.273 13.0099C144.593 12.6316 145.974 12.5521 147.326 12.7768C149.255 13.0453 151.118 13.6948 152.815 14.6907C153.71 15.217 154.589 15.8509 155.605 16.0117C156.276 16.1179 159.182 17.0008 159.85 17.1251C161.319 17.3983 162.684 18.772 164.094 18.2608C165.442 17.7717 165.741 15.9467 165.773 14.455C165.848 11.0568 163.38 6.35356 161.205 3.82554C159.556 1.90713 157.072 1.02156 154.643 0.561084C151.807 0.0847031 148.932 -0.0980739 146.061 0.0154093C142.175 0.0878488 138.181 0.401351 134.677 2.15881C131.173 3.91626 128.229 7.41402 128.061 11.4726C128.026 12.318 128.11 13.167 128.042 14.0102C127.876 16.0673 126.831 17.9253 126.341 19.9251C125.99 21.3923 125.938 22.9201 126.187 24.4099C126.436 25.8996 126.981 27.3183 127.787 28.5744C129.087 30.5747 134.288 32.3907 134.213 34.8079C135.153 33.7901 132.936 32.7655 133.876 31.7476C134.297 31.4115 134.595 30.9346 134.721 30.3964C134.846 29.8583 134.791 29.2915 134.565 28.7906L133.567 24.7215C133.384 23.9764 133.204 23.1698 133.48 22.4569C134.55 19.6933 135.707 23.7957 136.788 23.4939Z" fill="#2F2E41"/>
<path d="M145.834 56.6376L131.328 115.689L187.826 136.437L220.657 107.709L241.271 43.0718L207.677 68.6076L145.834 56.6376Z" fill="#F2F2F2"/>
<path d="M148.604 63.0349L148.409 63.8064L203.381 78.9683L203.576 78.1969L148.604 63.0349Z" fill="#E6E6E6"/>
<path d="M147.077 67.0249L146.882 67.7963L201.854 82.9583L202.049 82.1868L147.077 67.0249Z" fill="#E6E6E6"/>
<path d="M146.313 71.0149L146.119 71.7863L201.09 86.9482L201.285 86.1768L146.313 71.0149Z" fill="#E6E6E6"/>
<path d="M145.55 75.0049L145.355 75.7763L200.327 90.9382L200.522 90.1668L145.55 75.0049Z" fill="#E6E6E6"/>
<path d="M144.787 78.9948L144.592 79.7662L199.564 94.9282L199.758 94.1567L144.787 78.9948Z" fill="#E6E6E6"/>
<path d="M144.023 82.9848L143.828 83.7563L198.8 98.9182L198.995 98.1468L144.023 82.9848Z" fill="#E6E6E6"/>
<path d="M143.259 86.9748L143.064 87.7463L198.036 102.908L198.231 102.137L143.259 86.9748Z" fill="#E6E6E6"/>
<path d="M142.496 90.9648L142.301 91.7362L197.273 106.898L197.468 106.127L142.496 90.9648Z" fill="#E6E6E6"/>
<path d="M141.732 94.9548L141.538 95.7262L196.509 110.888L196.704 110.117L141.732 94.9548Z" fill="#E6E6E6"/>
<path d="M122.555 100.076C122.555 100.076 139.726 89.3555 147.361 96.5375C154.996 103.719 125.22 114.093 125.22 114.093L122.555 100.076Z" fill="#9F616A"/>
<path d="M103.842 105.315L125.983 96.5375C125.983 96.5375 122.166 111.699 129.801 112.497L119.112 126.063C119.112 126.063 97.7337 126.063 103.842 105.315Z" fill="#3F3D56"/>
<path d="M162.107 104.988L191.487 115.338L184.534 131.178L155.153 120.829L162.107 104.988Z" fill="#E6E6E6"/>
<path d="M214.167 71.4007L236.309 53.8445L230.201 75.3907L207.296 92.9465L214.167 71.4007Z" fill="#CCCCCC"/>
<path d="M225.389 83.0529L203.247 100.608L203.709 101.244L225.851 83.6888L225.389 83.0529Z" fill="#E6E6E6"/>
<path d="M223.862 91.8308L201.72 109.386L202.182 110.022L224.324 92.4667L223.862 91.8308Z" fill="#E6E6E6"/>
<path d="M226.765 97.3354C226.765 97.3354 245.853 85.3655 233.637 80.5775C221.421 75.7895 221.421 94.1435 221.421 94.1435C221.421 94.1435 220.657 98.1334 226.765 97.3354Z" fill="#9F616A"/>
<path opacity="0.1" d="M114.913 70.6027L114.149 101.725L125.984 98.1947L116.44 98.5323L114.913 70.6027Z" fill="black"/>
<path d="M31.5997 244.761C33.9864 253.983 42.1613 259.694 42.1613 259.694C42.1613 259.694 46.4667 250.454 44.08 241.233C41.6933 232.011 33.5183 226.3 33.5183 226.3C33.5183 226.3 29.213 235.54 31.5997 244.761Z" fill="#8985A8"/>
<path d="M35.1072 242.78C41.6563 249.443 42.4563 259.686 42.4563 259.686C42.4563 259.686 32.6379 259.126 26.0888 252.463C19.5397 245.799 18.7397 235.556 18.7397 235.556C18.7397 235.556 28.5581 236.116 35.1072 242.78Z" fill="#3F3D56"/>
<path d="M257.802 155.738H246.013V168.061H257.802V155.738Z" fill="#F2F2F2"/>
<path d="M210.643 16.084H198.854V28.4064H210.643V16.084Z" fill="#F2F2F2"/>
<path d="M62.4857 140.951C65.7413 140.951 68.3806 138.193 68.3806 134.79C68.3806 131.387 65.7413 128.629 62.4857 128.629C59.23 128.629 56.5908 131.387 56.5908 134.79C56.5908 138.193 59.23 140.951 62.4857 140.951Z" fill="#F2F2F2"/>
</g>
<defs>
<clipPath id="clip0">
<rect width="314" height="274" fill="white"/>
</clipPath>
</defs>
</svg>
