<svg width="271" height="390" viewBox="0 0 271 390" fill="none" xmlns="http://www.w3.org/2000/svg">
<g clip-path="url(#clip0)">
<path d="M212.169 107.589C212.169 109.81 212.097 112.013 211.953 114.196C211.146 126.791 207.964 139.119 202.575 150.531C202.534 150.628 202.485 150.719 202.443 150.809C202.192 151.338 201.935 151.867 201.67 152.389C200.068 155.617 198.29 158.755 196.344 161.788C187.459 175.714 175.28 187.236 160.884 195.338C146.488 203.439 130.318 207.87 113.804 208.238L114.799 265.493L127.783 258.657L130.102 263.064L114.897 271.07L116.756 377.406L116.776 378.827L106.737 379.669L106.758 379.634L109.919 208.245C96.6258 208.054 83.5034 205.225 71.313 199.921C59.1227 194.617 48.1075 186.944 38.9069 177.348C38.2736 176.694 37.6467 176.018 37.0342 175.35C37.0063 175.322 36.9855 175.294 36.9645 175.273C29.2987 166.914 23.0991 157.32 18.6268 146.896C18.7244 147.008 18.8287 147.112 18.9263 147.224C8.8188 123.588 8.13328 96.9813 17.0102 72.8563C25.8871 48.7313 43.6544 28.9146 66.671 17.467C67.0191 17.2929 67.3744 17.1258 67.7225 16.9518C90.4902 5.98522 116.547 3.973 140.729 11.314C164.91 18.655 185.451 34.8133 198.28 56.5862C198.893 57.6166 199.484 58.6678 200.055 59.726C208.024 74.4195 212.189 90.874 212.169 107.589V107.589Z" fill="#E5E5E5"/>
<path d="M138.045 379.903C154.604 379.903 168.028 366.479 168.028 349.92C168.028 333.361 154.604 319.937 138.045 319.937C121.485 319.937 108.062 333.361 108.062 349.92C108.062 366.479 121.485 379.903 138.045 379.903Z" fill="#2F2E41"/>
<path d="M173.482 370.53H146.62V379.639H173.482V370.53Z" fill="#2F2E41"/>
<path d="M173.672 379.639C175.244 379.639 176.518 376.241 176.518 372.049C176.518 367.856 175.244 364.458 173.672 364.458C172.1 364.458 170.825 367.856 170.825 372.049C170.825 376.241 172.1 379.639 173.672 379.639Z" fill="#2F2E41"/>
<path d="M167.216 369.834H140.355V378.943H167.216V369.834Z" fill="#2F2E41"/>
<path d="M167.406 378.943C168.978 378.943 170.253 375.545 170.253 371.352C170.253 367.16 168.978 363.762 167.406 363.762C165.834 363.762 164.56 367.16 164.56 371.352C164.56 375.545 165.834 378.943 167.406 378.943Z" fill="#2F2E41"/>
<path d="M108.96 322.037C106.539 311.194 114.278 300.238 126.246 297.566C138.213 294.894 149.877 301.517 152.298 312.36C154.719 323.202 146.788 327.201 134.821 329.873C122.853 332.545 111.381 332.879 108.96 322.037Z" fill="#8257E5"/>
<path d="M149.569 348.213C148.001 348.245 146.462 347.783 145.17 346.893C143.879 346.003 142.899 344.73 142.37 343.254C142.341 343.167 142.329 343.076 142.336 342.984C142.342 342.893 142.366 342.804 142.407 342.722C142.448 342.64 142.504 342.567 142.573 342.507C142.642 342.447 142.722 342.401 142.809 342.372C142.895 342.343 142.987 342.331 143.078 342.338C143.169 342.344 143.258 342.368 143.34 342.409C143.422 342.449 143.495 342.506 143.555 342.575C143.615 342.644 143.661 342.724 143.69 342.81C144.744 345.949 148.353 347.59 151.734 346.468C153.413 345.921 154.808 344.733 155.614 343.163C155.96 342.486 156.168 341.748 156.226 340.99C156.284 340.233 156.191 339.471 155.952 338.75C155.923 338.664 155.911 338.572 155.917 338.481C155.924 338.39 155.948 338.301 155.989 338.219C156.029 338.137 156.086 338.064 156.155 338.004C156.224 337.944 156.304 337.898 156.39 337.869C156.477 337.839 156.569 337.828 156.66 337.834C156.751 337.84 156.84 337.864 156.922 337.905C157.004 337.946 157.077 338.002 157.137 338.071C157.197 338.14 157.243 338.22 157.272 338.307C157.57 339.202 157.687 340.147 157.616 341.087C157.545 342.028 157.288 342.945 156.86 343.785C155.887 345.686 154.202 347.125 152.173 347.79C151.333 348.069 150.454 348.212 149.569 348.213V348.213Z" fill="white"/>
<path d="M162.925 352.288C163.729 353.862 163.876 355.69 163.333 357.372C162.789 359.054 161.599 360.451 160.026 361.256C158.452 362.061 156.623 362.207 154.942 361.664C153.26 361.12 151.863 359.931 151.058 358.357L151.052 358.345C149.379 355.067 151.691 353.032 154.969 351.359C158.248 349.686 161.252 349.009 162.925 352.288Z" fill="white"/>
<path d="M269.937 380.173H4.68716C4.50252 380.173 4.32543 380.1 4.19487 379.97C4.0643 379.839 3.99097 379.662 3.99097 379.477C3.99097 379.293 4.0643 379.116 4.19487 378.985C4.32543 378.854 4.50252 378.781 4.68716 378.781H269.937C270.122 378.781 270.299 378.854 270.43 378.985C270.56 379.116 270.633 379.293 270.633 379.477C270.633 379.662 270.56 379.839 270.43 379.97C270.299 380.1 270.122 380.173 269.937 380.173Z" fill="#3F3D56"/>
<path d="M131.337 389.613C134.129 388.893 134.533 381.098 132.239 372.202C129.945 363.307 125.822 356.679 123.029 357.4C120.236 358.12 119.832 365.915 122.127 374.81C124.421 383.706 128.544 390.333 131.337 389.613Z" fill="#2F2E41"/>
<path d="M181.683 314.177H170.275C170.167 314.177 170.061 314.145 169.971 314.083C169.881 314.022 169.812 313.934 169.773 313.833C169.734 313.732 169.727 313.621 169.752 313.515C169.777 313.409 169.834 313.314 169.914 313.241L180.288 303.846H170.703C170.56 303.846 170.424 303.789 170.323 303.688C170.222 303.587 170.165 303.451 170.165 303.308C170.165 303.165 170.222 303.028 170.323 302.927C170.424 302.827 170.56 302.77 170.703 302.77H181.683C181.792 302.77 181.898 302.803 181.987 302.864C182.077 302.926 182.146 303.013 182.185 303.114C182.224 303.216 182.232 303.327 182.206 303.432C182.181 303.538 182.125 303.634 182.044 303.707L171.671 313.101H181.683C181.826 313.101 181.962 313.158 182.063 313.259C182.164 313.36 182.221 313.497 182.221 313.639C182.221 313.782 182.164 313.919 182.063 314.02C181.962 314.121 181.826 314.177 181.683 314.177V314.177Z" fill="#CBCBCB"/>
<path d="M196.208 297.5H184.801C184.692 297.5 184.586 297.467 184.496 297.406C184.407 297.344 184.338 297.257 184.299 297.156C184.26 297.054 184.252 296.943 184.277 296.838C184.302 296.732 184.359 296.636 184.44 296.563L194.813 287.168H185.229C185.086 287.168 184.949 287.112 184.848 287.011C184.747 286.91 184.691 286.773 184.691 286.63C184.691 286.488 184.747 286.351 184.848 286.25C184.949 286.149 185.086 286.093 185.229 286.093H196.208C196.317 286.093 196.423 286.125 196.513 286.187C196.602 286.248 196.671 286.336 196.71 286.437C196.749 286.538 196.757 286.649 196.732 286.755C196.707 286.861 196.65 286.956 196.569 287.029L186.196 296.424H196.208C196.351 296.424 196.488 296.481 196.589 296.582C196.69 296.683 196.746 296.819 196.746 296.962C196.746 297.105 196.69 297.242 196.589 297.343C196.488 297.443 196.351 297.5 196.208 297.5V297.5Z" fill="#CBCBCB"/>
<path d="M189.753 279.209H178.345C178.237 279.209 178.13 279.176 178.041 279.115C177.951 279.053 177.882 278.966 177.843 278.864C177.804 278.763 177.797 278.652 177.822 278.546C177.847 278.441 177.903 278.345 177.984 278.272L188.357 268.877H178.773C178.63 268.877 178.493 268.821 178.393 268.72C178.292 268.619 178.235 268.482 178.235 268.339C178.235 268.197 178.292 268.06 178.393 267.959C178.493 267.858 178.63 267.801 178.773 267.801H189.753C189.861 267.801 189.968 267.834 190.057 267.896C190.147 267.957 190.216 268.044 190.255 268.146C190.294 268.247 190.301 268.358 190.276 268.464C190.251 268.569 190.195 268.665 190.114 268.738L179.741 278.133H189.753C189.895 278.133 190.032 278.19 190.133 278.291C190.234 278.391 190.291 278.528 190.291 278.671C190.291 278.814 190.234 278.95 190.133 279.051C190.032 279.152 189.895 279.209 189.753 279.209V279.209Z" fill="#CBCBCB"/>
<path d="M241.311 143.224L250.218 136.1C243.298 135.336 240.455 139.11 239.291 142.097C233.885 139.853 228 142.795 228 142.795L245.823 149.265C244.924 146.863 243.358 144.768 241.311 143.224V143.224Z" fill="#3F3D56"/>
<path d="M13.3107 7.22425L22.2184 0.0997746C15.2984 -0.663686 12.4551 3.11031 11.2914 6.09748C5.88527 3.85263 0 6.79463 0 6.79463L17.8226 13.2649C16.9235 10.8633 15.3584 8.76791 13.3107 7.22425V7.22425Z" fill="#3F3D56"/>
<path d="M225.311 7.22425L234.218 0.0997746C227.298 -0.663686 224.455 3.11031 223.291 6.09748C217.885 3.85263 212 6.79463 212 6.79463L229.823 13.2649C228.924 10.8633 227.358 8.76791 225.311 7.22425Z" fill="#3F3D56"/>
</g>
<defs>
<clipPath id="clip0">
<rect width="271" height="390" fill="white"/>
</clipPath>
</defs>
</svg>
