<svg width="300" height="235" viewBox="0 0 300 235" fill="none" xmlns="http://www.w3.org/2000/svg">
<g clip-path="url(#clip0)">
<path opacity="0.1" d="M105.235 230.193C134.137 230.193 157.566 225.755 157.566 220.28C157.566 214.805 134.137 210.366 105.235 210.366C76.3336 210.366 52.9043 214.805 52.9043 220.28C52.9043 225.755 76.3336 230.193 105.235 230.193Z" fill="#8257E5"/>
<path opacity="0.1" d="M174.302 33.1039C155.07 32.4383 136.753 26.2275 119.261 19.4343C101.77 12.6411 84.4456 5.11691 65.6737 1.51824C53.5999 -0.796671 39.7906 -1.12652 30.0644 5.33979C20.7008 11.5803 17.6756 22.3228 16.0501 32.2986C14.8258 39.805 14.1067 47.7066 17.4587 54.7346C19.7885 59.614 23.9191 63.7149 26.7778 68.3893C36.7239 84.6502 29.693 104.703 18.9178 120.58C13.866 128.027 7.99696 135.141 4.09518 143.061C0.193402 150.98 -1.61039 160.086 1.80404 168.186C5.18578 176.21 13.2479 182.224 21.9815 186.459C39.7193 195.062 60.613 197.522 81.0015 198.919C126.12 202.004 171.476 200.669 216.714 199.329C233.456 198.836 250.27 198.334 266.739 195.745C275.885 194.307 285.326 192.025 291.968 186.515C300.395 179.523 302.485 167.684 296.835 158.918C287.362 144.208 261.176 140.556 254.546 124.773C250.903 116.084 254.644 106.409 259.942 98.3525C271.306 81.0664 290.351 65.902 291.353 46.1465C292.042 32.5779 282.887 18.9886 268.73 12.5668C253.892 5.83605 233.313 6.68297 222.372 17.8237C211.094 29.2824 191.285 33.6953 174.302 33.1039Z" fill="#8257E5"/>
<path d="M159.019 107.497L149.917 101.36L154.508 94.5254L130.467 92.6087L121.829 99.2889L111.015 93.2268L101.996 94.3114L101.889 91.9341C101.777 89.4557 101.528 86.9855 101.143 84.5347C101.182 83.7918 101.209 82.9389 101.206 82.0118C101.206 78.104 100.677 72.9244 98.3528 69.4714L98.8877 64.6633L94.5491 59.5372C95.2458 58.1493 96.0402 56.8126 96.9264 55.5373C97.075 55.3234 97.2235 55.1153 97.384 54.9133C103.015 54.5062 107.458 49.8763 107.458 44.2153C107.458 43.9538 107.458 43.6923 107.428 43.4338C107.428 43.3298 107.407 43.2228 107.396 43.1188C107.945 43.416 108.501 43.7131 109.057 44.0103C109.161 44.1589 109.28 44.3074 109.41 44.4828L109.437 44.5155L109.603 44.7205L109.657 44.7829C109.716 44.8542 109.779 44.9226 109.841 44.9939L109.883 45.0414C110.04 45.2168 110.207 45.3951 110.385 45.5704C110.406 45.5877 110.426 45.6065 110.444 45.6269L110.667 45.8349L110.73 45.8913C110.92 46.0607 111.122 46.2242 111.324 46.3787L111.389 46.4262L111.645 46.6016L111.728 46.6551C111.826 46.7145 111.927 46.7769 112.025 46.8334L112.061 46.8542C112.177 46.9166 112.296 46.976 112.415 47.0325L112.474 47.0562C112.575 47.0998 112.674 47.1414 112.771 47.181L112.863 47.2137C112.967 47.2494 113.068 47.2821 113.175 47.3118L113.241 47.3296C113.371 47.3623 113.502 47.3891 113.636 47.4099H113.651C113.777 47.4302 113.904 47.4431 114.031 47.4485H114.117C114.231 47.4544 114.345 47.4544 114.459 47.4485H114.533C114.676 47.4403 114.818 47.4234 114.958 47.398C115.623 47.3105 116.262 47.0815 116.83 46.7264C116.975 46.6295 117.104 46.5101 117.211 46.3727C117.805 45.5942 117.151 44.7413 117.151 44.7413C116.92 44.1886 115.416 43.7993 115.416 43.7993C115.416 43.7993 110.661 41.8142 110.661 40.2333C110.661 38.6524 109.473 30.4506 97.2027 28.5755C97.2027 28.5755 89.2209 28.1268 86.9773 32.4L86.9297 32.8993C86.27 33.3123 85.7233 34.1414 85.0725 34.3851C84.7913 34.4455 84.5201 34.5456 84.2671 34.6823V34.6258C84.192 34.6915 84.1304 34.7713 84.0859 34.8606C83.9461 35.1387 83.8623 35.4416 83.8392 35.7521C83.7723 36.1313 83.6406 36.4962 83.4499 36.8308C83.3968 36.9258 83.3372 37.0172 83.2716 37.1042V37.1042L83.2211 37.1844C83.5661 37.2113 83.9126 37.1552 84.2315 37.021C84.1812 37.4278 84.0814 37.827 83.9343 38.2096C84.1232 38.2157 84.3099 38.1674 84.4722 38.0705C84.6344 37.9736 84.7654 37.8321 84.8496 37.6628V37.6391L84.8882 37.5856C84.963 37.448 85.0246 37.3037 85.0725 37.1547L85.0398 37.1903C85.0992 36.9972 85.1527 36.8011 85.2181 36.6109C85.248 36.5037 85.2974 36.403 85.3637 36.3137C85.443 36.2337 85.54 36.1735 85.6468 36.1379C85.7537 36.1023 85.8674 36.0923 85.9788 36.1087L85.857 38.6851H85.9105C85.8389 38.8725 85.7514 39.0534 85.649 39.2259C85.227 39.9094 84.4603 40.376 84.178 41.1248C84.0563 41.486 84.0098 41.8683 84.0413 42.2481C84.0413 42.471 84.068 42.6968 84.0859 42.9197V42.9019C84.1275 43.4962 84.1394 44.0608 83.8184 44.5392C83.5985 44.8661 83.2449 45.1128 83.1231 45.4842C83.0894 45.5877 83.0743 45.6964 83.0785 45.8052C83.1023 46.1308 83.1703 46.4517 83.2806 46.7591C83.2818 46.7532 83.2818 46.7471 83.2806 46.7412C83.3547 46.9673 83.372 47.2082 83.3311 47.4425C83.1973 48.0369 82.4752 48.5331 82.5109 49.1007C82.5089 49.1754 82.5199 49.2498 82.5436 49.3206C82.6825 49.5979 82.9231 49.8108 83.2152 49.915C83.6733 50.1755 84.1995 50.2915 84.7248 50.2478C84.9216 50.2122 85.112 50.1471 85.2894 50.0546C85.0814 50.5331 84.8674 51.0055 84.6505 51.4543C84.6178 51.5256 84.5821 51.5969 84.5465 51.6682C84.5465 51.6682 82.71 50.4409 81.6669 52.9431C81.3625 53.463 81.1447 54.0291 81.0221 54.6191C80.9698 54.8551 80.8962 55.0858 80.8022 55.3085C80.3391 56.0924 79.6461 56.7149 78.8171 57.0915C76.6894 58.0662 68.0954 68.7849 67.9439 71.5605C67.8695 72.6439 67.6863 73.7171 67.3971 74.7639C66.7206 77.229 66.5467 79.805 66.886 82.3386C66.9921 83.1575 67.1681 83.9657 67.4119 84.7546C68.3242 87.5271 68.9334 92.7008 68.9334 92.7008L69.92 101.681C69.8834 102.921 69.937 104.161 70.0805 105.393C69.0731 106.543 65.0287 111.336 66.5739 112.641C67.7626 113.669 69.8428 113.499 71.0106 113.288C70.027 115.722 68.4788 119.954 68.2737 122.86C67.9766 127.16 68.7819 132.857 70.0567 135.044C71.3316 137.231 75.581 142.841 75.581 142.841C75.581 142.841 75.3819 150.538 76.9004 153.334C78.4189 156.131 79.0311 161.931 79.0311 161.931C79.0311 161.931 80.4486 166.829 79.7383 168.629C79.0281 170.43 81.0548 171.928 78.9271 173.126C76.7994 174.323 74.0774 201.315 74.0774 201.315C74.0774 201.315 72.9808 219.005 74.0774 219.905C74.136 219.948 74.1987 219.985 74.2646 220.015V225.958C74.2646 225.958 73.5038 227.207 76.5973 227.459C78.7161 227.629 84.7218 228.012 88.2848 228.235L91.0455 228.407C91.0455 228.407 97.5831 229.709 100.472 228.407C103.36 227.106 108.48 227.135 107.719 223.697C107.619 223.229 107.483 222.769 107.315 222.321C106.48 220.188 105.063 219.944 102.451 219.35C102.299 219.317 102.154 219.287 102.02 219.263C99.268 218.785 98.3647 220.066 96.8224 218.399C95.4822 216.957 91.2149 215.344 89.7617 214.833C89.7974 214.726 89.842 214.622 89.8776 214.512C89.4661 214.442 89.0834 214.255 88.7751 213.974L92.7126 214.223L95.0572 214.369C95.0572 214.369 100.614 215.477 103.081 214.369C105.547 213.261 109.886 213.29 109.238 210.369C109.153 209.971 109.038 209.58 108.896 209.198C108.186 207.386 106.979 207.187 104.76 206.684C104.632 206.658 104.513 206.631 104.394 206.61C102.055 206.203 101.289 207.291 99.9783 205.876C98.855 204.67 95.3098 203.317 94.035 202.857C94.035 202.197 93.1435 201.258 92.5818 200.316C91.9221 199.217 93.1405 195.368 93.1405 195.368L93.8359 179.402C94.1007 179.284 94.3808 179.204 94.6679 179.164C94.6679 179.164 97.8119 176.163 97.1017 172.965C96.957 171.998 96.8815 171.022 96.8759 170.044C97.91 169.084 99.3334 167.667 99.7376 166.793C100.397 165.37 99.7376 158.472 99.7376 158.472V132.099L104.997 132.631L109.77 133.121L111.223 133.27L115.995 133.751L126.964 134.86L136.848 132.987L141.124 132.179L149.917 130.515V109L159.019 107.497ZM86.6266 36.2038L86.0145 36.1384C86.2165 36.1473 86.4305 36.1859 86.6266 36.2038Z" fill="url(#paint0_linear)"/>
<path d="M137.685 121.466C134.714 125.718 124.031 123.466 124.031 123.466L115.752 115.719L114.637 114.67L116.506 110.7C116.506 110.7 117.101 110.863 118.12 111.154C123.472 112.709 140.193 117.891 137.685 121.466Z" fill="#EFB7B9"/>
<path opacity="0.1" d="M118.114 111.154C117.749 112.426 116.747 114.331 115.752 115.719L114.637 114.67L116.506 110.7C116.506 110.7 117.107 110.863 118.114 111.154Z" fill="black"/>
<path d="M89.7203 66.3836C89.7203 66.3836 82.0891 69.7684 82.4635 78.0801C82.733 83.4349 83.3164 88.7692 84.2109 94.0557C84.2109 94.0557 82.6507 106.563 89.1468 109.788C95.6428 113.012 101.654 115.663 101.654 115.663C101.654 115.663 111.817 116.756 113.08 117.208C114.343 117.659 118.29 110.753 117.562 109.678C116.834 108.602 107.506 106.346 106.317 104.552C105.128 102.757 102.38 101.648 102.38 101.648C102.38 101.648 99.5416 99.9306 99.3484 98.3794C99.1553 96.8282 99.9041 95.6722 100.094 94.9917C100.285 94.3112 100.766 87.7409 100.766 87.7409C100.766 87.7409 103.969 64.354 89.7203 66.3836Z" fill="#DCE6F2"/>
<path opacity="0.1" d="M94.7568 93.7139C94.7568 93.7139 84.2877 95.4671 85.301 99.1312C85.301 99.1312 89.1018 95.1759 94.7568 93.7139Z" fill="black"/>
<path opacity="0.1" d="M94.8374 95.1968C94.8374 95.1968 89.0813 99.895 90.2076 100.136C91.3339 100.376 94.8374 95.1968 94.8374 95.1968Z" fill="black"/>
<path opacity="0.1" d="M97.6041 96.8342C97.6041 96.8342 96.0618 99.9931 97.0097 99.7791C97.9577 99.5651 97.6041 96.8342 97.6041 96.8342Z" fill="black"/>
<path opacity="0.1" d="M118.501 111.49L117.865 111.309C118.046 110.715 118.097 110.233 117.948 110.01C117.22 108.935 107.898 106.682 106.712 104.884C105.527 103.086 102.775 101.981 102.775 101.981C102.775 101.981 99.9371 100.263 99.7439 98.7122C99.5508 97.161 100.3 96.005 100.49 95.3245C100.68 94.644 101.161 88.0707 101.161 88.0707C101.161 88.0707 104.356 64.6868 90.1069 66.7164C90.1069 66.7164 82.4757 70.1041 82.8471 78.4158C83.1166 83.7707 83.7011 89.1052 84.5974 94.3914C84.5974 94.3914 83.0373 106.899 89.5333 110.123C96.0294 113.348 102.041 115.998 102.041 115.998C102.041 115.998 112.201 117.089 113.467 117.544C113.945 117.716 114.81 116.827 115.657 115.606L116.139 116.055L124.418 123.799C124.418 123.799 135.101 126.054 138.072 121.802C140.583 118.224 123.865 113.041 118.501 111.49Z" fill="black"/>
<path d="M85.3275 35.1874C85.0366 35.2442 84.758 35.3519 84.5044 35.5053C84.2072 35.752 84.2072 36.174 84.1329 36.5424C84.0456 37.055 83.8423 37.5409 83.5386 37.9629C83.8767 37.9877 84.2159 37.9317 84.5281 37.7994C84.4773 38.2062 84.3775 38.6053 84.231 38.9881C84.4161 38.9928 84.5987 38.944 84.7568 38.8476C84.915 38.7511 85.0419 38.6111 85.1225 38.4443C85.2797 38.1094 85.4041 37.7601 85.4939 37.4012C85.5218 37.2939 85.5703 37.193 85.6366 37.1041C85.91 36.7802 86.4181 36.9258 86.8401 36.9674C87.1913 36.997 87.544 36.9321 87.8617 36.7796C88.1793 36.627 88.4504 36.3923 88.6469 36.0997C89.0956 35.4191 89.1223 33.6778 88.0525 33.4935C86.9352 33.3093 86.2398 34.8486 85.3275 35.1874Z" fill="#965D7B"/>
<g opacity="0.1">
<path opacity="0.1" d="M84.4749 35.8708C84.5016 35.7251 84.5195 35.5736 84.5521 35.428C84.2698 35.6746 84.255 36.0936 84.1807 36.4651C84.1433 36.6794 84.0845 36.8895 84.0054 37.0921C84.2394 36.7192 84.3988 36.3044 84.4749 35.8708V35.8708Z" fill="black"/>
<path opacity="0.1" d="M84.5701 38.3254C84.7181 37.943 84.8179 37.5437 84.8672 37.1367C84.5697 37.262 84.2476 37.3178 83.9252 37.3002C83.8314 37.5092 83.7169 37.7083 83.5835 37.8945C83.9205 37.9206 84.2588 37.8655 84.5701 37.734C84.5207 38.141 84.4209 38.5403 84.2729 38.9227C84.458 38.927 84.6404 38.8781 84.7985 38.7816C84.9566 38.6852 85.0836 38.5454 85.1644 38.3789C85.2384 38.2438 85.2982 38.1014 85.3427 37.9539C85.2555 38.0758 85.139 38.1737 85.004 38.2386C84.8689 38.3035 84.7197 38.3334 84.5701 38.3254V38.3254Z" fill="black"/>
<path opacity="0.1" d="M87.1792 36.3047C86.7573 36.2631 86.2461 36.1175 85.9727 36.4414C85.9077 36.531 85.8593 36.6317 85.8301 36.7386C85.8034 36.8158 85.7796 36.8961 85.7588 36.9763C86.0411 36.7534 86.4987 36.8723 86.8821 36.9109C87.2331 36.9396 87.5855 36.8743 87.903 36.7218C88.2205 36.5694 88.4917 36.3351 88.6888 36.0432C88.7789 35.8989 88.8461 35.7415 88.8879 35.5767C88.6844 35.8285 88.4222 36.0266 88.1243 36.1536C87.8264 36.2805 87.5019 36.3324 87.1792 36.3047Z" fill="black"/>
</g>
<path d="M94.2727 59.7302L98.8044 65.1802L98.2131 70.6807L92.7363 62.1075L94.2727 59.7302Z" fill="#DCE6F2"/>
<path opacity="0.1" d="M98.8015 65.1802L98.2458 70.3539L98.2101 70.6807L93.2682 62.9426L92.7363 62.1075L92.8909 61.8668L94.2697 59.7302L94.5758 60.0987L98.8015 65.1802Z" fill="black"/>
<path d="M101.155 52.3516C99.6215 52.7914 98.1565 54.301 96.8816 56.1345C96.02 57.3996 95.2494 58.7243 94.5756 60.0987C94.1566 60.9367 93.7882 61.742 93.4821 62.4433L93.2681 62.9426C92.7511 64.1639 92.4628 64.9811 92.4628 64.9811C92.4628 64.9811 80.7248 56.1553 82.5821 55.561C83.2061 55.3619 84.0263 54.0247 84.8375 52.3397L84.9386 52.1258C85.4527 51.0441 85.9579 49.8376 86.4066 48.7024C87.3248 46.3697 88.0053 44.343 88.0053 44.343C88.0053 44.343 105.835 51.0144 101.155 52.3516Z" fill="#EFB7B9"/>
<path d="M108.177 43.8467C108.177 43.8467 110.887 48.7499 114.528 48.0813C118.168 47.4127 116.67 45.4484 116.67 45.4484L108.177 43.8467Z" fill="#444053"/>
<path d="M102.926 213.572C100.525 214.669 95.0956 213.572 95.0956 213.572L92.8074 213.43C89.8357 213.24 84.8612 212.919 83.102 212.776C80.5345 212.565 81.1645 211.513 81.1645 211.513V205.157L93.6216 202.001C93.6216 202.001 98.5457 203.686 99.8948 205.157C101.176 206.559 101.924 205.481 104.21 205.885C104.323 205.905 104.441 205.929 104.566 205.959C106.736 206.455 107.912 206.651 108.608 208.449C108.747 208.827 108.86 209.214 108.943 209.608C109.585 212.503 105.324 212.482 102.926 213.572Z" fill="#A36468"/>
<path opacity="0.1" d="M108.608 208.449C108.161 208.728 107.692 208.969 107.205 209.168C105.571 209.914 104.016 210.824 102.364 211.528C100.712 212.232 98.932 212.734 97.143 212.601C96.207 212.532 95.2501 212.304 94.3556 212.571C93.8025 212.785 93.2815 213.074 92.8074 213.43C89.8357 213.24 84.8612 212.919 83.102 212.776C80.5345 212.565 81.1645 211.513 81.1645 211.513V210.77C81.2566 210.77 81.3606 210.743 81.4795 210.735C82.0944 210.725 82.7068 210.816 83.2922 211.005C84.5819 211.356 85.8656 211.7 87.1553 212.045C87.2614 211.645 87.4478 211.27 87.7033 210.944C87.9587 210.618 88.2778 210.348 88.6411 210.149C89.3773 209.758 90.2034 209.569 91.0363 209.599C93.0362 209.626 94.9292 210.574 96.9261 210.669C97.4844 210.72 98.0465 210.626 98.5575 210.396C98.8309 210.259 99.0716 210.06 99.3391 209.908C99.7671 209.701 100.219 209.549 100.685 209.454C101.995 209.128 103.281 208.713 104.534 208.212C104.89 208.072 105.306 207.819 105.259 207.439C105.196 206.934 104.403 206.874 104.195 206.411C104.158 206.327 104.141 206.236 104.145 206.145C104.149 206.054 104.174 205.965 104.219 205.885C104.331 205.906 104.45 205.929 104.575 205.959C106.736 206.455 107.912 206.651 108.608 208.449Z" fill="black"/>
<path d="M100.389 227.48C97.5654 228.77 91.1764 227.48 91.1764 227.48L88.487 227.322C85.0043 227.1 79.1382 226.728 77.067 226.553C74.0448 226.303 74.7877 225.067 74.7877 225.067V217.575L89.4469 213.861C89.4469 213.861 95.2416 215.843 96.8285 217.575C98.3351 219.225 99.2058 217.956 101.907 218.431C102.041 218.455 102.18 218.485 102.326 218.517C104.879 219.112 106.263 219.335 107.081 221.45C107.246 221.895 107.378 222.351 107.476 222.814C108.213 226.22 103.212 226.193 100.389 227.48Z" fill="#A36468"/>
<path opacity="0.1" d="M107.075 221.45C106.55 221.778 105.998 222.061 105.425 222.297C103.503 223.174 101.672 224.243 99.7288 225.073C97.7853 225.902 95.6903 226.49 93.5834 226.336C92.4839 226.255 91.3577 225.979 90.3146 226.3C89.6611 226.554 89.046 226.898 88.4871 227.322C85.0043 227.099 79.1382 226.728 77.067 226.552C74.0448 226.303 74.7877 225.067 74.7877 225.067V224.193C74.9108 224.173 75.0348 224.159 75.1592 224.151C75.8831 224.138 76.6042 224.246 77.2928 224.469L81.8365 225.694C81.9631 225.221 82.1846 224.78 82.4876 224.396C82.7906 224.012 83.1687 223.695 83.5987 223.462C84.4648 223 85.438 222.777 86.4188 222.814C88.7723 222.847 90.9981 223.961 93.3487 224.074C94.0033 224.134 94.6623 224.024 95.2624 223.756C95.5863 223.593 95.8567 223.358 96.1836 223.183C96.6862 222.936 97.2186 222.757 97.7675 222.648C99.3 222.261 100.805 221.773 102.273 221.186C102.692 221.019 103.182 220.722 103.125 220.276C103.051 219.682 102.118 219.611 101.871 219.064C101.83 218.965 101.811 218.858 101.816 218.751C101.821 218.645 101.85 218.54 101.901 218.446C102.035 218.47 102.174 218.499 102.32 218.532C104.873 219.103 106.258 219.334 107.075 221.45Z" fill="black"/>
<path d="M93.9993 176.073L93.2059 194.744C93.2059 194.744 92.0172 198.557 92.6621 199.647C93.3069 200.738 94.3945 201.826 93.9993 202.47C93.6041 203.115 88.8494 210.087 87.3131 207.412C85.7768 204.738 84.2612 193.148 84.2612 193.148L85.6787 178.834L93.9993 176.073Z" fill="#444053"/>
<path d="M97.4404 129.555L99.6454 132.503V158.142C99.6454 158.142 100.29 164.977 99.6454 166.389C99.0005 167.8 95.7317 170.623 95.7317 170.623L92.9829 156.508L93.5772 141.576L97.4404 129.555Z" fill="#444053"/>
<path opacity="0.1" d="M93.9993 176.073L93.2059 194.744C93.2059 194.744 92.0172 198.557 92.6621 199.647C93.3069 200.738 94.3945 201.826 93.9993 202.47C93.6041 203.115 88.8494 210.087 87.3131 207.412C85.7768 204.738 84.2612 193.148 84.2612 193.148L85.6787 178.834L93.9993 176.073Z" fill="black"/>
<path opacity="0.1" d="M97.4404 129.555L99.6454 132.503V158.142C99.6454 158.142 100.29 164.977 99.6454 166.389C99.0005 167.8 95.7317 170.623 95.7317 170.623L92.9829 156.508L93.5772 141.576L97.4404 129.555Z" fill="black"/>
<path d="M99.6454 118.62V132.488L97.17 143.284C97.17 143.284 96.3766 169.337 97.069 172.504C97.7614 175.672 94.6916 178.647 94.6916 178.647C94.6916 178.647 92.9086 178.846 92.9086 180.231C92.9086 181.616 89.937 185.58 89.937 185.58L90.0351 193.306C90.0351 193.306 91.3248 207.769 89.3427 210.542C87.3606 213.314 90.0351 213.712 90.0351 213.712C87.5597 221.834 75.6731 219.953 74.6003 219.061C73.5275 218.17 74.6003 200.637 74.6003 200.637C74.6003 200.637 77.257 173.892 79.3371 172.704C81.4173 171.515 79.4382 170.029 80.1306 168.246C80.8229 166.463 79.4382 161.61 79.4382 161.61C79.4382 161.61 78.8438 155.863 77.358 153.091C75.8722 150.318 76.0683 142.69 76.0683 142.69C76.0683 142.69 71.908 137.142 70.6718 134.964C69.4356 132.785 68.6392 127.139 68.9363 122.878C69.1384 119.998 70.651 115.805 71.6108 113.392C72.0714 112.236 72.4043 111.488 72.4043 111.488L72.6866 111.562L88.9177 115.811L99.6454 118.62Z" fill="#444053"/>
<path opacity="0.1" d="M101.155 52.3514C99.6217 52.7912 98.1567 54.3008 96.8819 56.1343H96.549C94.6804 56.1356 92.8446 55.6437 91.227 54.7081C89.6095 53.7725 88.2676 52.4265 87.3369 50.8062C86.948 50.1347 86.635 49.4221 86.4038 48.6814C87.322 46.3487 88.0026 44.322 88.0026 44.322C88.0026 44.322 105.835 51.0142 101.155 52.3514Z" fill="black"/>
<path d="M107.173 44.9224C107.175 46.5484 106.805 48.1533 106.089 49.6134C105.374 51.0736 104.333 52.3501 103.047 53.3445C101.76 54.339 100.263 55.0249 98.6694 55.3495C97.0762 55.674 95.4297 55.6285 93.8568 55.2165C92.2839 54.8045 90.8266 54.0369 89.5971 52.9729C88.3676 51.9089 87.3987 50.5769 86.7651 49.0794C86.1315 47.582 85.85 45.9591 85.9425 44.3357C86.0349 42.7124 86.4987 41.1319 87.2982 39.7161C87.6202 39.1408 87.9964 38.5975 88.4215 38.0936C89.1222 37.2587 89.9459 36.5353 90.8642 35.948C92.4152 34.9624 94.1954 34.3959 96.0309 34.3041C97.8663 34.2122 99.6942 34.598 101.336 35.4238C102.978 36.2496 104.377 37.4872 105.398 39.0156C106.418 40.544 107.024 42.311 107.158 44.1438C107.164 44.4054 107.173 44.6639 107.173 44.9224Z" fill="#EFB7B9"/>
<path opacity="0.1" d="M98.2456 70.3539L98.21 70.6807L93.2681 62.9544C92.751 64.1758 92.4628 64.993 92.4628 64.993C92.4628 64.993 80.7248 56.1553 82.5821 55.561C83.2061 55.3619 84.0263 54.0246 84.8375 52.3397L84.9386 52.1257C85.8004 54.6932 90.8076 59.8253 92.8907 61.8817C93.1314 62.1194 93.3305 62.3155 93.485 62.4582L93.803 62.7553L93.9694 62.9217C94.7272 63.7033 97.9247 67.1504 98.2456 70.3539Z" fill="black"/>
<path d="M101.94 96.5696L101.399 113.975L101.304 117.074C101.304 117.074 94.8967 116.48 88.9178 115.826C84.1037 115.3 79.566 114.732 78.8676 114.4C77.9762 113.981 76.0654 113.657 74.5588 113.452C73.3939 113.294 72.4786 113.211 72.4786 113.211C72.4786 113.211 72.1369 113.312 71.6109 113.407C70.4638 113.615 68.449 113.784 67.2752 112.765C65.7746 111.461 69.7179 106.721 70.7016 105.583L70.9185 105.336L70.547 101.904L69.5813 93.0037C69.5813 93.0037 68.9869 87.8776 68.0954 85.1288C67.8571 84.3473 67.6851 83.547 67.5813 82.7366C67.2501 80.2261 67.4198 77.6748 68.0806 75.2302C68.3629 74.1915 68.5421 73.1274 68.6155 72.0535C68.764 69.3048 77.159 58.6811 79.2391 57.7153C80.1749 57.2789 80.9278 56.5281 81.3668 55.5936C81.5117 55.2997 81.6205 54.9894 81.6907 54.6694C82.5822 50.8062 84.8377 52.3396 84.8377 52.3396C85.3815 55.3618 93.8002 63.3615 93.8002 63.3615L93.9666 63.5279C94.8016 64.3837 98.5221 68.4014 98.2577 71.8307C98.2048 73.107 98.3954 74.3818 98.8193 75.5868C100.532 80.9788 101.516 86.5754 101.746 92.2281L101.94 96.5696Z" fill="#DCE6F2"/>
<path opacity="0.1" d="M90.0114 75.9021C90.0114 75.9021 87.9312 80.9539 86.3711 81.7711C84.8109 82.5883 90.7543 83.4947 90.0114 75.9021Z" fill="black"/>
<path opacity="0.1" d="M91.5715 85.3369C91.5715 85.3369 86.8169 85.9312 86.8169 86.8227C86.8169 87.7142 91.5715 85.3369 91.5715 85.3369Z" fill="black"/>
<path opacity="0.1" d="M96.5491 91.1316C96.5491 91.1316 89.64 105.841 87.7084 106.287C85.7768 106.733 96.5491 91.1316 96.5491 91.1316Z" fill="black"/>
<path opacity="0.1" d="M93.6693 64.1075L87.9548 66.5918L81.0576 56.1731C81.2025 55.8793 81.3113 55.569 81.3815 55.249C82.273 51.3858 84.5285 52.9192 84.5285 52.9192C85.0723 55.9414 93.491 63.941 93.491 63.941L93.6693 64.1075Z" fill="black"/>
<path d="M93.9662 63.5132L88.2517 65.9975L81.3545 55.5789C81.4994 55.2851 81.6082 54.9747 81.6784 54.6547C82.5699 50.7916 84.8254 52.325 84.8254 52.325C85.3692 55.3471 93.7879 63.3468 93.7879 63.3468L93.9662 63.5132Z" fill="#DCE6F2"/>
<path opacity="0.1" d="M101.304 117.074C101.304 117.074 94.8969 116.48 88.9179 115.826L99.6455 118.634V121.903C99.176 122.328 98.7689 122.548 98.5044 122.435C97.2682 121.915 87.1795 120.281 87.1795 120.281C87.1795 120.281 81.3194 117.309 74.9957 113.743C74.8422 113.658 74.6934 113.565 74.55 113.464C73.8126 112.963 73.1773 112.327 72.6778 111.588C71.51 109.898 70.9394 107.725 70.6928 105.595C70.5541 104.374 70.5025 103.144 70.5382 101.916C70.5689 100.523 70.696 99.1337 70.9186 97.7584C70.307 92.4315 70.0094 87.0733 70.0271 81.7115C70.1014 73.3908 77.902 70.4192 77.902 70.4192C92.2402 69.1562 87.7946 92.3351 87.7946 92.3351C87.7946 92.3351 86.9655 98.8727 86.7397 99.5414C86.5138 100.21 85.7026 101.324 85.8125 102.884C85.9225 104.445 88.6623 106.311 88.6623 106.311C88.6623 106.311 91.3368 107.565 92.4393 109.422C93.2416 110.792 98.4539 112.649 101.399 113.975L101.304 117.074Z" fill="black"/>
<path opacity="0.1" d="M106.106 38.3253C106.111 38.8147 106.01 39.2995 105.809 39.7457C105.656 40.1099 105.48 40.4633 105.28 40.8036C104.967 41.4297 104.523 41.9811 103.978 42.4202C103.292 42.9105 102.424 43.0472 101.601 43.2463C100.778 43.4454 99.9218 43.7634 99.4523 44.4647C99.1978 44.9156 99.0276 45.409 98.9501 45.9208C98.8713 46.4322 98.6672 46.9162 98.3557 47.3294C98.1936 47.5311 97.969 47.6733 97.7173 47.7336C97.4655 47.7938 97.2009 47.7687 96.965 47.6622C96.7165 47.4947 96.528 47.2521 96.4271 46.9698C96.0884 46.2061 96.0022 45.3592 95.8655 44.536C95.7288 43.7129 95.5356 42.866 95.0305 42.2033C94.5253 41.5406 93.6308 41.1038 92.8374 41.3623C92.5718 41.4645 92.3296 41.6194 92.1254 41.8175C91.9211 42.0156 91.759 42.253 91.6487 42.5153C91.4291 43.0405 91.2783 43.5918 91.2 44.1557C90.8315 46.1724 90.3967 48.1773 89.8954 50.1703C89.8802 50.252 89.8466 50.3292 89.7974 50.3961C89.7184 50.4749 89.6118 50.5197 89.5002 50.5209C88.8346 50.6101 88.1957 50.1435 87.5241 50.1941C87.4549 50.1987 87.3862 50.2096 87.319 50.2268C86.2332 48.3396 85.7537 46.1643 85.9456 43.9956C86.1375 41.8269 86.9915 39.7695 88.3918 38.1024L88.4453 38.0875C88.892 37.929 89.298 37.6732 89.6339 37.3387C90.0629 36.9094 90.4602 36.4496 90.8226 35.9628L91.0603 35.6657C91.7434 34.8428 92.5214 34.1036 93.3782 33.4637C93.6121 33.2721 93.8804 33.1268 94.1687 33.0357C94.4154 32.9877 94.6683 32.9796 94.9175 33.012C95.9438 33.1352 96.9784 33.1739 98.011 33.1279C98.7305 33.0148 99.4557 32.9413 100.183 32.908C102.064 32.9614 103.669 34.2898 104.858 35.7459C105.497 36.4918 106.067 37.3506 106.106 38.3253Z" fill="black"/>
<path d="M85.9103 39.9985C85.4972 40.676 84.7514 41.1366 84.472 41.8795C84.0619 42.9582 84.7543 44.3014 84.1184 45.2642C83.9074 45.5882 83.5597 45.8289 83.4409 46.2003C83.2388 46.8273 83.7915 47.496 83.6489 48.1408C83.5062 48.7857 82.6563 49.3295 82.8822 49.9595C83.0157 50.2342 83.2498 50.447 83.5359 50.5538C83.9862 50.8121 84.5045 50.9271 85.0218 50.8836C85.833 50.7499 86.4363 49.9535 87.2594 49.8941C87.928 49.8465 88.567 50.3101 89.2326 50.2239C89.3442 50.22 89.4502 50.1745 89.5298 50.0961C89.5803 50.0299 89.6139 49.9524 89.6278 49.8703C90.1271 47.8793 90.5629 45.8744 90.9354 43.8557C91.0112 43.2917 91.1611 42.7402 91.3811 42.2153C91.4923 41.9535 91.6547 41.7167 91.8588 41.5186C92.063 41.3206 92.3047 41.1655 92.5698 41.0623C93.3632 40.8068 94.2547 41.2406 94.7628 41.9033C95.271 42.566 95.4642 43.4129 95.6008 44.2361C95.7375 45.0592 95.8237 45.9061 96.1595 46.6698C96.2616 46.9531 96.4509 47.1966 96.7004 47.3652C97.1461 47.6237 97.7464 47.4187 98.0881 47.0324C98.4012 46.619 98.6055 46.1337 98.6824 45.6208C98.76 45.1099 98.9302 44.6175 99.1847 44.1677C99.6542 43.4664 100.513 43.1484 101.333 42.9493C102.153 42.7502 103.018 42.6106 103.71 42.1202C104.255 41.6815 104.698 41.1313 105.012 40.5066C105.452 39.7399 105.862 38.9079 105.826 38.0253C105.788 37.0625 105.217 36.2037 104.608 35.4548C103.419 33.9987 101.812 32.6704 99.9305 32.6199C99.2028 32.6503 98.4774 32.7237 97.7583 32.8398C96.7256 32.8862 95.6908 32.8465 94.6648 32.7209C94.4153 32.6911 94.1627 32.7001 93.9159 32.7477C93.6273 32.8358 93.3594 32.9814 93.1284 33.1756C92.2708 33.8145 91.4918 34.5526 90.8076 35.3746C90.3664 35.9595 89.888 36.5154 89.3752 37.0387C89.0392 37.3737 88.6333 37.6305 88.1866 37.7905C87.8894 37.8737 87.5923 37.8143 87.3099 37.9064C86.4333 38.1828 86.3174 39.3269 85.9103 39.9985Z" fill="#965D7B"/>
<path opacity="0.1" d="M114.528 48.0783C112.15 48.5151 110.18 46.5925 109.09 45.1899C108.755 44.7639 108.45 44.3151 108.177 43.8467L116.337 45.386L116.667 45.4484C116.667 45.4484 118.168 47.4127 114.528 48.0783Z" fill="black"/>
<g opacity="0.1">
<path opacity="0.1" d="M83.6487 47.291C83.682 46.9024 83.6229 46.5114 83.4764 46.1499C83.4764 46.1796 83.4496 46.2093 83.4407 46.2391C83.313 46.6373 83.4853 47.0503 83.5953 47.4634C83.6189 47.4079 83.6368 47.3501 83.6487 47.291V47.291Z" fill="black"/>
<path opacity="0.1" d="M84.3566 42.4263C84.326 42.8372 84.334 43.2501 84.3803 43.6595C84.4108 43.2486 84.4029 42.8357 84.3566 42.4263Z" fill="black"/>
<path opacity="0.1" d="M104.995 39.6479C104.682 40.274 104.238 40.8253 103.693 41.2645C103.007 41.7548 102.142 41.8915 101.316 42.0906C100.49 42.2897 99.6367 42.6077 99.1672 43.309C98.9131 43.76 98.743 44.2534 98.665 44.7651C98.5876 45.2778 98.3833 45.763 98.0706 46.1766C97.7289 46.5629 97.1286 46.771 96.6829 46.5095C96.4334 46.3408 96.2441 46.0973 96.142 45.8141C95.8062 45.0504 95.7171 44.2064 95.5833 43.3803C95.4496 42.5542 95.2505 41.7102 94.7453 41.0476C94.2402 40.3849 93.3457 39.9481 92.5523 40.2066C92.2869 40.3093 92.045 40.4643 91.8408 40.6623C91.6366 40.8604 91.4743 41.0975 91.3636 41.3596C91.1436 41.8844 90.9937 42.4359 90.9178 42.9999C90.5474 45.0187 90.1115 47.0236 89.6103 49.0146C89.5964 49.0967 89.5628 49.1742 89.5123 49.2404C89.4327 49.3187 89.3267 49.3643 89.2151 49.3682C88.5494 49.4544 87.9105 48.9908 87.2419 49.0383C86.4188 49.0978 85.8155 49.8942 85.0043 50.0249C84.4868 50.0713 83.9676 49.9561 83.5184 49.6951C83.3119 49.6062 83.1265 49.4745 82.9746 49.3088C82.9051 49.4083 82.8591 49.5224 82.84 49.6423C82.821 49.7622 82.8294 49.8849 82.8647 50.0011C82.9955 50.2778 83.2306 50.4915 83.5184 50.5955C83.9676 50.8565 84.4868 50.9717 85.0043 50.9253C85.8155 50.7946 86.4188 49.9982 87.2419 49.9387C87.9105 49.8912 88.5494 50.3548 89.2151 50.2686C89.3267 50.2647 89.4327 50.2191 89.5123 50.1408C89.5628 50.0746 89.5964 49.9971 89.6103 49.915C90.1096 47.9339 90.5454 45.929 90.9178 43.9003C90.9937 43.3364 91.1436 42.7848 91.3636 42.26C91.4743 41.9979 91.6366 41.7608 91.8408 41.5627C92.045 41.3647 92.2869 41.2097 92.5523 41.107C93.3457 40.8485 94.2372 41.2853 94.7453 41.948C95.2535 42.6107 95.4467 43.4576 95.5833 44.2807C95.72 45.1039 95.8062 45.9508 96.142 46.7145C96.2441 46.9977 96.4334 47.2413 96.6829 47.4099C97.1286 47.6684 97.7289 47.4634 98.0706 47.077C98.3833 46.6634 98.5876 46.1782 98.665 45.6655C98.743 45.1538 98.9131 44.6604 99.1672 44.2094C99.6367 43.5081 100.495 43.1931 101.316 42.991C102.136 42.7889 103.001 42.6552 103.693 42.1649C104.238 41.7257 104.682 41.1744 104.995 40.5483C105.434 39.7846 105.844 38.9525 105.809 38.07C105.803 37.9565 105.791 37.8434 105.773 37.7312C105.63 38.4114 105.366 39.0604 104.995 39.6479V39.6479Z" fill="black"/>
</g>
<path opacity="0.1" d="M105.82 39.7369C106.582 41.0918 107.034 42.5991 107.143 44.1498C104.495 42.664 102.005 41.0326 100.748 40.465C98.5576 39.4754 90.3677 39.624 87.2891 39.7161C87.6111 39.1408 87.9872 38.5975 88.4123 38.0936C89.1158 37.258 89.9425 36.5345 90.864 35.948C92.0842 35.1736 93.4497 34.6561 94.8767 34.4273C96.3038 34.1985 97.7625 34.2631 99.1638 34.6171C100.565 34.9712 101.879 35.6073 103.026 36.4866C104.174 37.3658 105.129 38.4698 105.835 39.731L105.82 39.7369Z" fill="black"/>
<path opacity="0.1" d="M115.271 46.8183C113.841 47.2581 111.508 46.4083 109.09 45.1899C108.755 44.7639 108.45 44.3151 108.177 43.8467L116.337 45.386C116.878 45.7545 117.015 46.2805 115.271 46.8183Z" fill="black"/>
<path d="M97.1816 29.4341C97.1816 29.4341 89.381 28.9884 87.1879 33.223L86.8343 36.9762L86.24 36.9108L86.1211 39.4635C86.1211 39.4635 98.0433 38.9434 100.756 40.1677C103.47 41.3921 111.9 47.5612 115.279 46.5211C118.658 45.481 114.982 44.5153 114.982 44.5153C114.982 44.5153 110.331 42.5451 110.331 40.9998C110.331 39.4545 109.178 31.2914 97.1816 29.4341Z" fill="#444053"/>
<path opacity="0.1" d="M82.1367 168.567C82.1367 168.567 87.1142 173.396 89.2687 173.024C89.2687 173.024 83.1768 172.504 82.1367 168.567Z" fill="black"/>
<path opacity="0.1" d="M81.0967 170.804C81.0967 170.804 81.5424 173.289 82.7311 173.045C83.9198 172.801 81.0967 170.804 81.0967 170.804Z" fill="black"/>
<path opacity="0.1" d="M88.8971 212.324C88.8971 212.324 81.8305 217.822 83.0221 217.971C84.2137 218.119 88.8971 212.324 88.8971 212.324Z" fill="black"/>
<path d="M98.3496 103.214L121.231 99.4907V121.154L99.4907 120.016L98.3496 103.214Z" fill="#8257E5"/>
<path opacity="0.05" d="M98.3496 103.214L121.231 99.4907V121.154L99.4907 120.016L98.3496 103.214Z" fill="black"/>
<path d="M121.231 99.4907L148.672 101.544L147.153 120.396L121.231 121.154V99.4907Z" fill="#8257E5"/>
<path opacity="0.1" d="M121.231 99.4907L148.672 101.544L147.153 120.396L121.231 121.154V99.4907Z" fill="black"/>
<path d="M129.668 92.8789L121.231 99.4908L148.672 101.544L153.156 94.7778L129.668 92.8789Z" fill="#8257E5"/>
<path d="M90.0645 95.9929L110.664 93.4849L121.231 99.4906L98.3494 103.214L90.0645 95.9929Z" fill="#8257E5"/>
<path d="M126.247 105.116V134.735L115.529 133.635L110.866 133.16L109.446 133.011L104.786 132.533L98.3496 131.873V103.214L121.228 104.772L126.247 105.116Z" fill="#8257E5"/>
<path d="M148.672 101.544V130.429L140.081 132.078L135.902 132.881L126.248 134.735V105.116L148.672 101.544Z" fill="#8257E5"/>
<path opacity="0.05" d="M148.672 101.544V130.429L140.081 132.078L135.902 132.881L126.248 134.735V105.116L148.672 101.544Z" fill="black"/>
<path d="M90.0645 109.449L98.3494 103.214L126.247 105.116L122.14 112.034L90.0645 109.449Z" fill="#8257E5"/>
<path opacity="0.1" d="M90.0645 109.449L98.3494 103.214L126.247 105.116L122.14 112.034L90.0645 109.449Z" fill="white"/>
<path d="M148.672 101.544L126.248 105.116L133.546 111.654L157.566 107.624L148.672 101.544Z" fill="#8257E5"/>
<path opacity="0.1" d="M148.672 101.544L126.248 105.116L133.546 111.654L157.566 107.624L148.672 101.544Z" fill="white"/>
<path opacity="0.1" d="M140.08 132.078L135.902 132.88V126.708L139.816 125.722L140.08 132.078Z" fill="white"/>
<path opacity="0.1" d="M115.529 129.552V133.635L110.866 133.16V129.552H115.529Z" fill="white"/>
<path opacity="0.1" d="M109.446 130.839V133.011L104.786 132.533V130.839H109.446Z" fill="white"/>
<path opacity="0.1" d="M123.442 127.386C120.248 131.472 109.698 128.649 109.698 128.649L101.859 120.471L100.795 119.362L102.876 115.499C102.876 115.499 103.47 115.695 104.462 116.04C109.716 117.877 126.132 123.948 123.442 127.386Z" fill="black"/>
<path d="M123.145 126.792C119.951 130.878 109.402 128.055 109.402 128.055L101.562 119.877L100.499 118.768L102.579 114.905C102.579 114.905 103.173 115.101 104.166 115.446C109.419 117.282 125.835 123.353 123.145 126.792Z" fill="#EFB7B9"/>
<path opacity="0.1" d="M104.154 115.446C103.72 116.694 102.617 118.542 101.551 119.877L100.487 118.768L102.567 114.905C102.567 114.905 103.164 115.101 104.154 115.446Z" fill="black"/>
<path d="M78.1989 69.2306C78.1989 69.2306 70.3983 72.2023 70.324 80.5229C70.3062 85.8847 70.6039 91.2429 71.2155 96.5698C71.2155 96.5698 68.9867 108.976 75.3015 112.542C81.6163 116.108 87.4853 119.08 87.4853 119.08C87.4853 119.08 97.574 120.714 98.8132 121.235C100.052 121.755 104.358 115.068 103.69 113.954C103.021 112.84 93.8357 110.091 92.7451 108.234C91.6545 106.376 88.9681 105.125 88.9681 105.125C88.9681 105.125 86.2283 103.256 86.1183 101.696C86.0084 100.136 86.8166 99.0214 87.0455 98.3528C87.2743 97.6842 88.1034 91.1465 88.1034 91.1465C88.1034 91.1465 92.5371 67.9528 78.1989 69.2306Z" fill="#DCE6F2"/>
<path opacity="0.1" d="M81.7651 96.7778C81.7651 96.7778 71.2157 97.9665 72.0329 101.681C72.0329 101.681 76.0417 97.9338 81.7651 96.7778Z" fill="black"/>
<path opacity="0.1" d="M81.7648 98.2637C81.7648 98.2637 75.777 102.647 76.8765 102.944C77.976 103.241 81.7648 98.2637 81.7648 98.2637Z" fill="black"/>
<path opacity="0.1" d="M84.4395 100.047C84.4395 100.047 82.7309 103.119 83.6966 102.959C84.6624 102.798 84.4395 100.047 84.4395 100.047Z" fill="black"/>
<path d="M194.278 33.3984C194.278 33.3984 182.986 32.7179 184.305 40.6403C184.305 40.6403 184.041 42.04 185.309 42.6759C185.309 42.6759 185.33 42.0816 186.468 42.2866C186.874 42.3548 187.286 42.3748 187.696 42.346C188.251 42.309 188.779 42.0908 189.199 41.725V41.725C189.199 41.725 192.376 40.4145 193.612 35.22C193.612 35.22 194.527 34.0849 194.504 33.7936L192.596 34.6108C192.596 34.6108 193.247 35.9867 192.733 37.1308C192.733 37.1308 192.673 34.6614 192.305 34.7178C192.23 34.7178 191.315 35.1963 191.315 35.1963C191.315 35.1963 192.435 37.5914 191.589 39.3358C191.589 39.3358 191.909 36.382 190.964 35.3686L189.621 36.1531C189.621 36.1531 190.932 38.6285 190.043 40.6492C190.043 40.6492 190.272 37.5498 189.339 36.3433L188.121 37.2913C188.121 37.2913 189.354 39.734 188.602 41.41C188.602 41.41 188.504 37.8024 187.856 37.529C187.856 37.529 186.792 38.468 186.632 38.8544C186.632 38.8544 187.473 40.6374 186.95 41.5615C186.95 41.5615 186.629 39.1575 186.355 39.1456C186.355 39.1456 185.295 40.7384 185.185 41.8201C185.236 40.8116 185.55 39.8342 186.097 38.9851C185.485 39.1008 184.921 39.3932 184.474 39.8261C184.474 39.8261 184.638 38.6998 186.358 38.6018C186.358 38.6018 187.25 37.3923 187.47 37.318C187.47 37.318 185.758 37.1754 184.721 37.636C184.721 37.636 185.633 36.5751 187.785 37.0417L188.973 36.061C188.973 36.061 186.721 35.7639 185.764 36.0937C185.764 36.0937 186.864 35.1547 189.297 35.8381L190.605 35.0566C190.605 35.0566 188.685 34.6406 187.541 34.7921C187.541 34.7921 188.748 34.1413 190.988 34.8456L191.924 34.4266C191.924 34.4266 190.516 34.1502 190.106 34.1057C189.696 34.0611 189.672 33.9482 189.672 33.9482C190.563 33.7999 191.478 33.9028 192.314 34.2453C192.314 34.2453 194.319 33.5232 194.278 33.3984Z" fill="#8257E5"/>
<path opacity="0.1" d="M228.588 73.0224C228.588 73.0224 217.296 72.3419 218.616 80.2643C218.616 80.2643 218.351 81.664 219.62 82.2999C219.62 82.2999 219.641 81.7056 220.782 81.9106C221.187 81.9788 221.599 81.9988 222.009 81.9701C222.558 81.9302 223.08 81.7134 223.495 81.352V81.352C223.495 81.352 226.675 80.0385 227.911 74.8441C227.911 74.8441 228.823 73.7119 228.787 73.4206L226.88 74.2349C226.88 74.2349 227.53 75.6107 227.019 76.7548C227.019 76.7548 226.957 74.2854 226.591 74.3419C226.517 74.3419 225.599 74.8203 225.599 74.8203C225.599 74.8203 226.722 77.2184 225.875 78.9598C225.875 78.9598 226.196 76.006 225.248 74.9926L223.92 75.7682C223.92 75.7682 225.23 78.2436 224.342 80.2643C224.342 80.2643 224.571 77.1649 223.638 75.9584L222.422 76.9093C222.422 76.9093 223.652 79.3491 222.904 81.0251C222.904 81.0251 222.806 77.4175 222.158 77.1441C222.158 77.1441 221.094 78.0831 220.93 78.4695C220.93 78.4695 221.774 80.2525 221.251 81.1766C221.251 81.1766 220.93 78.7726 220.657 78.7607C220.657 78.7607 219.596 80.3535 219.486 81.4352C219.539 80.4266 219.855 79.4494 220.401 78.6002C219.789 78.7162 219.224 79.0085 218.776 79.4412C218.776 79.4412 218.942 78.3149 220.663 78.2169C220.663 78.2169 221.54 77.0074 221.774 76.9331C221.774 76.9331 220.063 76.7905 219.026 77.2511C219.026 77.2511 219.938 76.1902 222.086 76.6716L223.275 75.691C223.275 75.691 221.02 75.3938 220.066 75.7237C220.066 75.7237 221.165 74.7846 223.599 75.4681L224.906 74.6866C224.906 74.6866 222.984 74.2735 221.84 74.4221C221.84 74.4221 223.049 73.7713 225.29 74.4756L226.226 74.0566C226.226 74.0566 224.817 73.7802 224.404 73.7356C223.991 73.6911 223.97 73.5781 223.97 73.5781C224.862 73.4297 225.778 73.5326 226.615 73.8753C226.615 73.8753 228.624 73.1472 228.588 73.0224Z" fill="#8257E5"/>
<path opacity="0.1" d="M159.988 65.9885C159.988 65.9885 162.588 54.9667 154.552 54.9281C154.552 54.9281 153.218 54.4288 152.377 55.5699C152.377 55.5699 152.951 55.6918 152.561 56.7794C152.427 57.164 152.337 57.5629 152.294 57.9681C152.236 58.5204 152.361 59.0765 152.648 59.5519V59.5519C152.648 59.5519 153.399 62.9099 158.294 65.0138C158.294 65.0138 159.257 66.1074 159.548 66.1193L159.072 64.1015C159.072 64.1015 157.604 64.5087 156.564 63.8044C156.564 63.8044 159.01 64.1639 159.013 63.8044C159.013 63.7301 158.716 62.7465 158.716 62.7465C158.716 62.7465 156.163 63.4418 154.588 62.3096C154.588 62.3096 157.444 63.1298 158.606 62.372L158.071 60.91C158.071 60.91 155.396 61.7807 153.566 60.5593C153.566 60.5593 156.582 61.3141 157.931 60.6009L157.203 59.2399C157.203 59.2399 154.588 60.0363 153.064 59.0111C153.064 59.0111 156.63 59.5282 157.016 58.9398C157.016 58.9398 156.273 57.7303 155.919 57.5045C155.919 57.5045 154.029 58.0334 153.197 57.3589C153.197 57.3589 155.619 57.451 155.676 57.1954C155.676 57.1954 154.288 55.879 153.23 55.5818C154.216 55.8063 155.126 56.2835 155.872 56.9666C155.861 56.3438 155.669 55.7377 155.319 55.2223C155.319 55.2223 156.401 55.5789 156.211 57.3024C156.211 57.3024 157.251 58.3722 157.283 58.6159C157.283 58.6159 157.714 56.9547 157.438 55.8522C157.438 55.8522 158.329 56.9339 157.489 58.9695L158.249 60.3216C158.249 60.3216 158.939 58.1523 158.763 57.1538C158.763 57.1538 159.503 58.396 158.413 60.6782L158.962 62.1016C158.962 62.1016 159.696 60.277 159.744 59.13C159.744 59.13 160.181 60.4316 159.102 62.5206L159.358 63.5132C159.358 63.5132 159.869 62.1729 159.982 61.7747C160.095 61.3765 160.211 61.3736 160.211 61.3736C160.206 62.2776 159.95 63.1626 159.471 63.9292C159.471 63.9292 159.86 66.0034 159.988 65.9885Z" fill="#8257E5"/>
<path opacity="0.1" d="M135.257 69.7445C135.257 69.7445 126.188 62.9603 122.946 70.3091C122.946 70.3091 121.956 71.3344 122.666 72.5616C122.666 72.5616 123.005 72.0832 123.855 72.8766C124.156 73.1567 124.489 73.4001 124.847 73.6017C125.333 73.872 125.893 73.9763 126.443 73.8989V73.8989C126.443 73.8989 129.819 74.5497 133.706 70.8916C133.706 70.8916 135.094 70.4458 135.224 70.1843L133.177 69.8248C133.177 69.8248 132.963 71.3314 131.908 72.0059C131.908 72.0059 133.213 69.908 132.874 69.7564C132.806 69.7237 131.783 69.6078 131.783 69.6078C131.783 69.6078 131.403 72.2288 129.739 73.2184C129.739 73.2184 131.632 70.9272 131.397 69.5603L129.843 69.4771C129.843 69.4771 129.578 72.2675 127.724 73.468C127.724 73.468 129.617 71.0045 129.507 69.483L127.968 69.6078C127.968 69.6078 127.656 72.3209 126.107 73.3075C126.107 73.3075 128.006 70.2408 127.617 69.6584C127.617 69.6584 126.211 69.8575 125.864 70.0892C125.864 70.0892 125.593 72.0327 124.642 72.526C124.642 72.526 125.697 70.3418 125.483 70.1903C125.483 70.1903 123.721 70.9362 123.029 71.7861C123.628 70.9723 124.429 70.329 125.353 69.9199C124.778 69.681 124.146 69.6149 123.534 69.7297C123.534 69.7297 124.289 68.8798 125.781 69.7445C125.781 69.7445 127.177 69.2186 127.415 69.2839C127.415 69.2839 126.063 68.2231 124.943 68.0388C124.943 68.0388 126.292 67.6525 127.822 69.2275L129.364 69.07C129.364 69.07 127.65 67.5842 126.666 67.3345C126.666 67.3345 128.101 67.1533 129.757 69.0611L131.278 69.1294C131.278 69.1294 129.902 67.7268 128.865 67.2216C128.865 67.2216 130.229 67.3405 131.715 69.1621L132.728 69.3255C132.728 69.3255 131.703 68.3211 131.382 68.0596C131.061 67.7981 131.106 67.6882 131.106 67.6882C131.932 68.0542 132.641 68.6427 133.153 69.3879C133.153 69.3879 135.219 69.8664 135.257 69.7445Z" fill="#8257E5"/>
<path opacity="0.1" d="M165.452 6.71291C165.452 6.71291 156.383 -0.0743451 153.141 7.27752C153.141 7.27752 152.151 8.30274 152.862 9.53003C152.862 9.53003 153.2 9.0516 154.05 9.84503C154.353 10.1236 154.687 10.366 155.046 10.5671C155.531 10.8376 156.091 10.942 156.641 10.8643V10.8643C156.641 10.8643 160.017 11.5151 163.904 7.85402C163.904 7.85402 165.292 7.41125 165.42 7.14677L163.372 6.79314C163.372 6.79314 163.161 8.29977 162.103 8.97433C162.103 8.97433 163.411 6.87635 163.072 6.72479C163.004 6.69211 161.982 6.57621 161.982 6.57621C161.982 6.57621 161.589 9.20315 159.925 10.1868C159.925 10.1868 161.815 7.89562 161.583 6.52866L160.029 6.44546C160.029 6.44546 159.762 9.23584 157.91 10.4334C157.91 10.4334 159.803 7.96992 159.693 6.44843L158.157 6.57324C158.157 6.57324 157.842 9.28933 156.294 10.2759C156.294 10.2759 158.196 7.20917 157.806 6.62673C157.806 6.62673 156.401 6.82583 156.053 7.05762C156.053 7.05762 155.783 9.00108 154.832 9.49437C154.832 9.49437 155.887 7.31021 155.673 7.15568C155.673 7.15568 153.911 7.90454 153.218 8.75443C153.816 7.93981 154.617 7.29633 155.542 6.88823C154.967 6.64755 154.333 6.58141 153.72 6.69805C153.72 6.69805 154.478 5.84816 155.97 6.71291C155.97 6.71291 157.367 6.18395 157.604 6.2523C157.604 6.2523 156.252 5.19142 155.132 5.00421C155.132 5.00421 156.478 4.62087 158.008 6.19287L159.551 6.03537C159.551 6.03537 157.839 4.54954 156.852 4.29695C156.852 4.29695 158.288 4.11865 159.946 6.02645L161.467 6.09183C161.467 6.09183 160.092 4.68921 159.052 4.187C159.052 4.187 160.418 4.30587 161.904 6.12749L162.915 6.29093C162.915 6.29093 161.886 5.2984 161.566 5.04284C161.245 4.78728 161.289 4.67435 161.289 4.67435C162.116 5.04004 162.825 5.62858 163.337 6.37414C163.337 6.37414 165.402 6.82583 165.452 6.71291Z" fill="#8257E5"/>
<path opacity="0.1" d="M200.108 15.3099C200.108 15.3099 196.483 4.57928 189.645 8.79605C189.645 8.79605 188.249 9.09322 188.139 10.4929C188.139 10.4929 188.688 10.2908 188.932 11.42C189.023 11.8217 189.159 12.2116 189.339 12.5819C189.585 13.0803 189.985 13.4859 190.48 13.7379V13.7379C190.48 13.7379 192.893 16.1895 198.171 15.3783C198.171 15.3783 199.565 15.8002 199.82 15.6546L198.334 14.1955C198.334 14.1955 197.306 15.3159 196.052 15.2713C196.052 15.2713 198.32 14.2847 198.132 13.9667C198.094 13.9043 197.318 13.2298 197.318 13.2298C197.318 13.2298 195.517 15.1702 193.586 15.0425C193.586 15.0425 196.441 14.2282 197.024 12.9623L195.794 12.0144C195.794 12.0144 193.993 14.1599 191.785 14.0945C191.785 14.0945 194.757 13.1406 195.508 11.8212L194.171 11.0515C194.171 11.0515 192.388 13.1109 190.54 13.0455C190.54 13.0455 193.844 11.5983 193.853 10.897C193.853 10.897 192.584 10.264 192.165 10.2581C192.165 10.2581 190.84 11.7053 189.788 11.5745C189.788 11.5745 191.892 10.371 191.803 10.1244C191.803 10.1244 189.931 9.74104 188.876 10.0501C189.83 9.71788 190.854 9.64104 191.847 9.82722C191.508 9.3039 191.024 8.89082 190.454 8.63855C190.454 8.63855 191.559 8.36813 192.299 9.92528C192.299 9.92528 193.749 10.2848 193.904 10.4721C193.904 10.4721 193.393 8.83468 192.575 8.04422C192.575 8.04422 193.904 8.49294 194.266 10.6652L195.627 11.4081C195.627 11.4081 195.066 9.20614 194.388 8.43648C194.388 8.43648 195.675 9.10213 195.954 11.6132L197.172 12.5314C197.172 12.5314 196.834 10.5939 196.263 9.58948C196.263 9.58948 197.321 10.4631 197.511 12.8078L198.251 13.515C198.251 13.515 197.978 12.1065 197.865 11.7083C197.752 11.3101 197.844 11.2833 197.844 11.2833C198.316 12.0542 198.566 12.9408 198.566 13.8449C198.566 13.8449 200.004 15.3872 200.108 15.3099Z" fill="#8257E5"/>
<path opacity="0.1" d="M176.448 15.8389C176.448 15.8389 165.185 14.5849 166.115 22.5756C166.115 22.5756 165.779 23.9604 167.007 24.6558C167.007 24.6558 167.057 24.0615 168.195 24.3289C168.598 24.4154 169.008 24.4563 169.42 24.4507C169.975 24.4407 170.513 24.2498 170.95 23.9069V23.9069C170.95 23.9069 174.192 22.7569 175.705 17.6308C175.705 17.6308 176.673 16.5462 176.653 16.252L174.706 16.9711C174.706 16.9711 175.301 18.3767 174.706 19.494C174.706 19.494 174.769 17.0246 174.409 17.0632C174.335 17.0632 173.396 17.4911 173.396 17.4911C173.396 17.4911 174.394 19.9427 173.461 21.6514C173.461 21.6514 173.931 18.7155 173.036 17.6575L171.654 18.3707C171.654 18.3707 172.843 20.9115 171.847 22.8847C171.847 22.8847 172.234 19.8001 171.363 18.549L170.1 19.4405C170.1 19.4405 171.206 21.9397 170.371 23.5771C170.371 23.5771 170.457 19.9695 169.824 19.6634C169.824 19.6634 168.712 20.5549 168.531 20.9234C168.531 20.9234 169.283 22.7361 168.715 23.6425C168.715 23.6425 168.516 21.2265 168.255 21.2027C168.255 21.2027 167.114 22.7391 166.947 23.8237C167.05 22.8181 167.415 21.8571 168.005 21.0363C167.388 21.1215 166.81 21.3849 166.341 21.7941C166.341 21.7941 166.561 20.6797 168.284 20.6678C168.284 20.6678 169.221 19.5059 169.473 19.4435C169.473 19.4435 167.77 19.2147 166.709 19.6218C166.709 19.6218 167.675 18.6055 169.797 19.1969L171.048 18.2786C171.048 18.2786 168.787 17.821 167.83 18.1182C167.83 18.1182 168.977 17.2267 171.372 18.0439L172.718 17.3277C172.718 17.3277 170.819 16.8166 169.669 16.9087C169.669 16.9087 170.908 16.3144 173.11 17.1375L174.067 16.7661C174.067 16.7661 172.674 16.4184 172.263 16.353C171.853 16.2876 171.839 16.1747 171.839 16.1747C172.737 16.0716 173.646 16.2198 174.466 16.6026C174.466 16.6026 176.468 15.9637 176.448 15.8389Z" fill="#8257E5"/>
<path opacity="0.1" d="M274.988 103.256C274.988 103.256 263.731 102.002 264.661 109.984C264.661 109.984 264.325 111.369 265.553 112.064C265.553 112.064 265.603 111.47 266.741 111.734C267.143 111.824 267.554 111.865 267.966 111.856C268.522 111.847 269.059 111.656 269.496 111.312V111.312C269.496 111.312 272.738 110.162 274.236 105.039C274.236 105.039 275.205 103.951 275.184 103.66L273.237 104.376C273.237 104.376 273.832 105.785 273.237 106.902C273.237 106.902 273.3 104.43 272.94 104.471C272.866 104.471 271.927 104.896 271.927 104.896C271.927 104.896 272.925 107.348 271.992 109.057C271.992 109.057 272.462 106.124 271.567 105.063L270.185 105.779C270.185 105.779 271.374 108.32 270.382 110.293C270.382 110.293 270.765 107.208 269.894 105.954L268.631 106.846C268.631 106.846 269.737 109.345 268.902 110.979C268.902 110.979 268.988 107.372 268.355 107.069C268.355 107.069 267.246 107.96 267.062 108.329C267.062 108.329 267.817 110.141 267.246 111.048C267.246 111.048 267.047 108.632 266.786 108.608C266.786 108.608 265.645 110.144 265.478 111.229C265.581 110.223 265.946 109.262 266.536 108.442C265.919 108.525 265.34 108.789 264.872 109.199C264.872 109.199 265.092 108.082 266.816 108.07C266.816 108.07 267.755 106.908 268.004 106.849C268.004 106.849 266.301 106.617 265.241 107.024C265.241 107.024 266.206 106.011 268.331 106.602L269.579 105.684C269.579 105.684 267.344 105.262 266.373 105.553C266.373 105.553 267.52 104.662 269.915 105.476L271.261 104.763C271.261 104.763 269.362 104.252 268.212 104.344C268.212 104.344 269.451 103.749 271.653 104.572L272.61 104.198C272.61 104.198 271.217 103.85 270.806 103.788C270.396 103.726 270.382 103.61 270.382 103.61C271.28 103.505 272.189 103.652 273.008 104.035C273.008 104.035 275.017 103.384 274.988 103.256Z" fill="#8257E5"/>
<path opacity="0.1" d="M292.196 113.77C292.196 113.77 280.94 112.518 281.87 120.497C281.87 120.497 281.537 121.882 282.762 122.577C282.762 122.577 282.812 121.983 283.95 122.251C284.351 122.338 284.761 122.378 285.172 122.369C285.725 122.358 286.259 122.168 286.696 121.829V121.829C286.696 121.829 289.935 120.679 291.433 115.553C291.433 115.553 292.405 114.468 292.381 114.174L290.434 114.89C290.434 114.89 291.029 116.298 290.434 117.416C290.434 117.416 290.497 114.946 290.137 114.985C290.063 114.985 289.124 115.41 289.124 115.41C289.124 115.41 290.122 117.861 289.189 119.57C289.189 119.57 289.659 116.637 288.764 115.579L287.382 116.292C287.382 116.292 288.571 118.833 287.579 120.806C287.579 120.806 287.962 117.722 287.091 116.471L285.828 117.362C285.828 117.362 286.934 119.861 286.102 121.499C286.102 121.499 286.185 117.888 285.552 117.585C285.552 117.585 284.444 118.477 284.259 118.845C284.259 118.845 285.014 120.658 284.444 121.564C284.444 121.564 284.244 119.148 283.983 119.124C283.983 119.124 282.842 120.661 282.678 121.745C282.781 120.74 283.145 119.779 283.733 118.958C283.117 119.043 282.538 119.307 282.069 119.716C282.069 119.716 282.292 118.598 284.016 118.59C284.016 118.59 284.952 117.428 285.204 117.365C285.204 117.365 283.501 117.136 282.441 117.544C282.441 117.544 283.406 116.527 285.531 117.119L286.779 116.2C286.779 116.2 284.545 115.778 283.573 116.07C283.573 116.07 284.72 115.178 287.115 115.995L288.461 115.279C288.461 115.279 286.562 114.768 285.412 114.86C285.412 114.86 286.651 114.266 288.853 115.089L289.81 114.717C289.81 114.717 288.417 114.37 288.009 114.304C287.602 114.239 287.582 114.126 287.582 114.126C288.48 114.023 289.389 114.171 290.208 114.554C290.208 114.554 292.226 113.897 292.196 113.77Z" fill="#8257E5"/>
<path opacity="0.1" d="M253.99 25.2116C253.99 25.2116 244.921 18.4273 241.678 25.7762C241.678 25.7762 240.689 26.8014 241.399 28.0287C241.399 28.0287 241.738 27.5503 242.588 28.3437C242.889 28.6238 243.222 28.8672 243.58 29.0688C244.066 29.3388 244.626 29.4432 245.176 29.3659V29.3659C245.176 29.3659 248.552 30.0167 252.442 26.3586C252.442 26.3586 253.827 25.9129 253.957 25.6514L251.916 25.2829C251.916 25.2829 251.702 26.7895 250.647 27.4641C250.647 27.4641 251.951 25.3661 251.613 25.2146C251.544 25.1819 250.525 25.066 250.525 25.066C250.525 25.066 250.142 27.687 248.478 28.6765C248.478 28.6765 250.371 26.3854 250.136 25.0184L248.582 24.9352C248.582 24.9352 248.317 27.7256 246.463 28.9261C246.463 28.9261 248.359 26.4626 248.246 24.9412L246.706 25.066C246.706 25.066 246.409 27.7791 244.846 28.7657C244.846 28.7657 246.748 25.6989 246.356 25.1165C246.356 25.1165 244.95 25.3156 244.603 25.5474C244.603 25.5474 244.335 27.4908 243.384 27.9841C243.384 27.9841 244.436 25.8 244.222 25.6484C244.222 25.6484 242.46 26.3943 241.768 27.2442C242.367 26.4304 243.168 25.7872 244.091 25.378C243.517 25.1391 242.885 25.073 242.273 25.1878C242.273 25.1878 243.031 24.3379 244.522 25.2027C244.522 25.2027 245.916 24.6767 246.154 24.7421C246.154 24.7421 244.802 23.6812 243.681 23.4969C243.681 23.4969 245.03 23.1106 246.561 24.6856L248.103 24.5281C248.103 24.5281 246.391 23.0423 245.405 22.7927C245.405 22.7927 246.84 22.6114 248.495 24.5192L250.02 24.5875C250.02 24.5875 248.641 23.1849 247.604 22.6797C247.604 22.6797 248.971 22.7986 250.454 24.6202L251.467 24.7837C251.467 24.7837 250.442 23.7792 250.121 23.5177C249.8 23.2562 249.848 23.1701 249.848 23.1701C250.673 23.5367 251.381 24.1251 251.892 24.8698C251.892 24.8698 253.951 25.3334 253.99 25.2116Z" fill="#8257E5"/>
<path opacity="0.1" d="M260.997 74.1904C260.997 74.1904 257.871 63.3053 250.84 67.213C250.84 67.213 249.431 67.4299 249.256 68.8385C249.256 68.8385 249.815 68.6632 250.008 69.8013C250.079 70.2102 250.199 70.6092 250.364 70.99C250.585 71.502 250.967 71.9279 251.452 72.2024V72.2024C251.452 72.2024 253.752 74.758 259.059 74.1874C259.059 74.1874 260.432 74.6689 260.694 74.5381L259.288 73.0107C259.288 73.0107 258.209 74.0864 256.961 73.9854C256.961 73.9854 259.267 73.0939 259.089 72.7759C259.053 72.7105 258.31 72.0003 258.31 72.0003C258.31 72.0003 256.426 73.8606 254.501 73.6436C254.501 73.6436 257.392 72.9602 258.028 71.7299L256.84 70.7255C256.84 70.7255 254.944 72.7878 252.742 72.6273C252.742 72.6273 255.737 71.8042 256.563 70.5234L255.262 69.6943C255.262 69.6943 253.375 71.6705 251.544 71.5219C251.544 71.5219 254.911 70.2233 254.953 69.5249C254.953 69.5249 253.71 68.8355 253.291 68.8117C253.291 68.8117 251.904 70.1965 250.849 70.0182C250.849 70.0182 253.006 68.9098 252.929 68.6602C252.929 68.6602 251.075 68.1936 250.008 68.4522C250.974 68.1656 251.998 68.1359 252.979 68.366C252.665 67.8283 252.2 67.3944 251.642 67.1179C251.642 67.1179 252.759 66.895 253.425 68.4849C253.425 68.4849 254.854 68.9068 255.003 69.103C255.003 69.103 254.566 67.4418 253.785 66.6187C253.785 66.6187 255.092 67.1238 255.357 69.311L256.682 70.1163C256.682 70.1163 256.218 67.8876 255.577 67.103C255.577 67.103 256.831 67.8251 257 70.3451L258.189 71.3168C258.189 71.3168 257.936 69.3674 257.413 68.3452C257.413 68.3452 258.432 69.2664 258.516 71.614L259.223 72.3569C259.223 72.3569 259.015 70.9365 258.926 70.5323C258.836 70.1282 258.926 70.0717 258.926 70.0717C259.365 70.8621 259.576 71.7594 259.535 72.663C259.535 72.663 260.89 74.2617 260.997 74.1904Z" fill="#8257E5"/>
<path opacity="0.1" d="M191.335 98.7181C191.335 98.7181 185.264 89.1554 179.627 94.8788C179.627 94.8788 178.337 95.4731 178.563 96.8846C178.563 96.8846 179.053 96.5578 179.559 97.5978C179.74 97.9664 179.966 98.3117 180.23 98.626C180.585 99.0551 181.07 99.3558 181.612 99.4818V99.4818C181.612 99.4818 184.539 101.289 189.472 99.2441C189.472 99.2441 190.925 99.3214 191.139 99.1223L189.356 98.0525C189.356 98.0525 188.622 99.3897 187.395 99.6423C187.395 99.6423 189.362 98.1565 189.098 97.8831C189.047 97.8296 188.132 97.3601 188.132 97.3601C188.132 97.3601 186.845 99.672 184.937 100.008C184.937 100.008 187.52 98.5369 187.787 97.1759L186.364 96.5488C186.364 96.5488 185.125 99.0599 182.967 99.5205C182.967 99.5205 185.612 97.889 186.043 96.427L184.557 95.9991C184.557 95.9991 183.303 98.4269 181.505 98.7984C181.505 98.7984 184.37 96.6053 184.212 95.9218C184.212 95.9218 182.827 95.6098 182.429 95.7049C182.429 95.7049 181.487 97.4255 180.423 97.5503C180.423 97.5503 182.183 95.8802 182.037 95.6603C182.037 95.6603 180.126 95.7346 179.175 96.2844C180.024 95.7348 181.001 95.4172 182.01 95.3632C181.558 94.9355 180.991 94.6494 180.379 94.54C180.379 94.54 181.386 94.014 182.459 95.3513C182.459 95.3513 183.945 95.3513 184.15 95.4999C184.15 95.4999 183.258 94.014 182.281 93.4583C182.281 93.4583 183.677 93.5772 184.545 95.6009L186.046 95.9991C186.046 95.9991 184.973 93.9932 184.138 93.4197C184.138 93.4197 185.544 93.7585 186.414 96.1328L187.817 96.7271C187.817 96.7271 187.026 94.9293 186.233 94.0883C186.233 94.0883 187.469 94.6827 188.209 96.9144L189.101 97.4285C189.101 97.4285 188.506 96.1239 188.295 95.7643C188.084 95.4048 188.168 95.3216 188.168 95.3216C188.811 95.9567 189.264 96.7582 189.478 97.6365C189.478 97.6365 191.255 98.8192 191.335 98.7181Z" fill="#8257E5"/>
<path d="M231.236 49.8585C231.236 49.8585 225.462 40.1144 219.646 45.6595C219.646 45.6595 218.339 46.2241 218.523 47.6327C218.523 47.6327 219.019 47.3177 219.495 48.3727C219.665 48.7477 219.879 49.1008 220.134 49.4246C220.475 49.8628 220.951 50.1762 221.489 50.3161V50.3161C221.489 50.3161 224.357 52.212 229.352 50.3161C229.352 50.3161 230.802 50.438 231.022 50.2448L229.278 49.1215C229.278 49.1215 228.505 50.432 227.269 50.6489C227.269 50.6489 229.281 49.2136 229.028 48.9432C228.974 48.8867 228.077 48.3875 228.077 48.3875C228.077 48.3875 226.719 50.6608 224.808 50.9372C224.808 50.9372 227.435 49.5465 227.741 48.1973L226.339 47.5376C226.339 47.5376 225.022 50.013 222.85 50.4082C222.85 50.4082 225.545 48.86 226.021 47.4128L224.553 46.9373C224.553 46.9373 223.221 49.3147 221.415 49.6415C221.415 49.6415 224.345 47.5376 224.208 46.8512C224.208 46.8512 222.835 46.4946 222.425 46.5778C222.425 46.5778 221.429 48.2686 220.363 48.3608C220.363 48.3608 222.172 46.7501 222.036 46.5243C222.036 46.5243 220.122 46.5391 219.156 47.0592C220.021 46.5373 221.008 46.2505 222.018 46.2271C221.579 45.7854 221.02 45.4817 220.41 45.3534C220.41 45.3534 221.435 44.8572 222.49 46.2271C222.49 46.2271 223.976 46.2776 224.175 46.4292C224.175 46.4292 223.334 44.9434 222.371 44.3312C222.371 44.3312 223.762 44.4917 224.567 46.5421L226.053 46.9879C226.053 46.9879 225.046 44.9493 224.226 44.349C224.226 44.349 225.622 44.7324 226.419 47.1305L227.801 47.7754C227.801 47.7754 227.067 45.9537 226.315 45.1009C226.315 45.1009 227.53 45.7338 228.205 47.9863L229.075 48.5272C229.075 48.5272 228.517 47.2048 228.321 46.8393C228.125 46.4738 228.208 46.3935 228.208 46.3935C228.831 47.0482 229.26 47.863 229.447 48.7471C229.447 48.7471 231.15 49.9565 231.236 49.8585Z" fill="#8257E5"/>
<path d="M194.705 70.3479C194.705 70.3479 195.003 59.0259 187.137 60.6217C187.137 60.6217 185.728 60.4047 185.134 61.6944C185.134 61.6944 185.728 61.6944 185.562 62.8385C185.507 63.2464 185.501 63.6594 185.544 64.0688C185.598 64.624 185.833 65.1461 186.212 65.5546C186.212 65.5546 187.63 68.6867 192.863 69.7506C192.863 69.7506 194.025 70.6272 194.316 70.5796L193.425 68.7016C193.425 68.7016 192.073 69.3969 190.911 68.9244C190.911 68.9244 193.377 68.7788 193.309 68.4163C193.309 68.342 192.798 67.4386 192.798 67.4386C192.798 67.4386 190.438 68.6421 188.67 67.8517C188.67 67.8517 191.642 68.0745 192.613 67.0969L191.784 65.7804C191.784 65.7804 189.354 67.1712 187.303 66.351C187.303 66.351 190.408 66.4758 191.585 65.5041L190.596 64.3154C190.596 64.3154 188.198 65.6289 186.498 64.9335C186.498 64.9335 190.099 64.7166 190.361 64.0598C190.361 64.0598 189.386 63.0287 188.994 62.8712C188.994 62.8712 187.253 63.7627 186.302 63.2813C186.302 63.2813 188.679 62.8831 188.694 62.6186C188.694 62.6186 187.068 61.6112 185.972 61.5369C186.983 61.555 187.972 61.8378 188.839 62.3571C188.704 61.7497 188.394 61.1951 187.948 60.7613C187.948 60.7613 189.08 60.8891 189.235 62.6037C189.235 62.6037 190.474 63.4417 190.554 63.6735C190.554 63.6735 190.64 61.9589 190.144 60.9366C190.144 60.9366 191.238 61.8133 190.827 63.9766L191.847 65.1475C191.847 65.1475 192.079 62.8831 191.707 61.9411C191.707 61.9411 192.682 63.0079 192.082 65.4625L192.905 66.7432C192.905 66.7432 193.255 64.8087 193.068 63.6706C193.068 63.6706 193.758 64.8592 193.128 67.1206L193.579 68.0419C193.579 68.0419 193.808 66.6244 193.838 66.2113C193.867 65.7983 193.98 65.7715 193.98 65.7715C194.159 66.658 194.088 67.5767 193.775 68.4252C193.775 68.4252 194.575 70.3865 194.705 70.3479Z" fill="#8257E5"/>
<path opacity="0.1" d="M207.709 214.212C212.129 214.212 215.712 213.606 215.712 212.859C215.712 212.113 212.129 211.507 207.709 211.507C203.289 211.507 199.707 212.113 199.707 212.859C199.707 213.606 203.289 214.212 207.709 214.212Z" fill="#8257E5"/>
<path opacity="0.1" d="M178.537 234.739C182.957 234.739 186.539 234.134 186.539 233.387C186.539 232.641 182.957 232.035 178.537 232.035C174.117 232.035 170.534 232.641 170.534 233.387C170.534 234.134 174.117 234.739 178.537 234.739Z" fill="#8257E5"/>
<path opacity="0.1" d="M27.6779 224.223C32.0977 224.223 35.6806 223.618 35.6806 222.871C35.6806 222.124 32.0977 221.519 27.6779 221.519C23.2582 221.519 19.6753 222.124 19.6753 222.871C19.6753 223.618 23.2582 224.223 27.6779 224.223Z" fill="#8257E5"/>
<path opacity="0.1" d="M239.236 233.388C243.655 233.388 247.238 232.782 247.238 232.035C247.238 231.289 243.655 230.683 239.236 230.683C234.816 230.683 231.233 231.289 231.233 232.035C231.233 232.782 234.816 233.388 239.236 233.388Z" fill="#8257E5"/>
<path d="M247.568 216.901C254.167 216.901 259.517 215.996 259.517 214.88C259.517 213.764 254.167 212.859 247.568 212.859C240.969 212.859 235.619 213.764 235.619 214.88C235.619 215.996 240.969 216.901 247.568 216.901Z" fill="#8257E5"/>
<path d="M252.522 211.573C253.068 211.129 253.465 210.53 253.66 209.855C253.809 209.172 253.518 208.354 252.867 208.105C252.136 207.825 251.354 208.331 250.76 208.842C250.166 209.353 249.491 209.938 248.716 209.831C249.114 209.47 249.412 209.011 249.58 208.5C249.749 207.989 249.783 207.444 249.678 206.916C249.645 206.697 249.552 206.492 249.411 206.322C249.004 205.888 248.27 206.075 247.783 206.417C246.237 207.504 245.806 209.602 245.797 211.492C245.643 210.812 245.774 210.102 245.771 209.412C245.768 208.723 245.575 207.926 244.983 207.564C244.62 207.361 244.21 207.259 243.795 207.267C243.099 207.243 242.324 207.311 241.851 207.819C241.257 208.449 241.414 209.51 241.925 210.197C242.437 210.883 243.218 211.326 243.937 211.807C244.513 212.151 245.004 212.619 245.376 213.177C245.418 213.255 245.453 213.337 245.48 213.421H249.836C250.811 212.93 251.715 212.308 252.522 211.573V211.573Z" fill="#8257E5"/>
<path d="M22.3052 216.586C22.3052 216.586 26.8667 216.446 28.2485 215.465C29.6303 214.485 35.2705 213.317 35.6122 214.889C35.954 216.461 42.4708 222.701 37.318 222.743C32.1651 222.785 25.3452 221.941 23.9723 221.103C22.5994 220.265 22.3052 216.586 22.3052 216.586Z" fill="#A8A8A8"/>
<path opacity="0.2" d="M37.4041 222.197C32.2513 222.238 25.4314 221.394 24.0585 220.556C23.0124 219.92 22.5964 217.635 22.4567 216.58H22.3052C22.3052 216.58 22.6023 220.262 23.9663 221.097C25.3303 221.932 32.1592 222.779 37.312 222.737C38.7978 222.737 39.3119 222.197 39.2852 221.412C39.0772 221.89 38.5096 222.188 37.4041 222.197Z" fill="black"/>
</g>
<defs>
<linearGradient id="paint0_linear" x1="66.2649" y1="128.797" x2="159.019" y2="128.797" gradientUnits="userSpaceOnUse">
<stop stop-color="#808080" stop-opacity="0.25"/>
<stop offset="0.54" stop-color="#808080" stop-opacity="0.12"/>
<stop offset="1" stop-color="#808080" stop-opacity="0.1"/>
</linearGradient>
<clipPath id="clip0">
<rect width="300" height="234.74" fill="white"/>
</clipPath>
</defs>
</svg>
