<svg width="120" height="90" viewBox="-0 0 250 200" fill="none" xmlns="http://www.w3.org/2000/svg">
<path d="M165.692 63.5496C174.378 55.2678 179.068 43.8398 179.269 31.9664C179.41 23.7376 175.712 16.2947 166.631 16.683C153.227 17.2556 144.442 30.8425 136.43 39.7048C136.19 39.9686 136.047 40.2522 135.969 40.5358L133.528 38.2934L132.865 40.447L126.073 50.3868L124.416 49.2271V40.447C129.055 38.2934 129.221 33.6548 129.221 33.6548C129.386 30.0103 132.203 28.8506 132.203 28.8506C137.504 26.5313 138.995 23.2181 138.995 23.2181C140.486 21.8928 127.233 21.8928 127.233 21.8928L125.41 19.7392C131.374 15.5976 127.233 10.2965 127.233 10.2965C135.516 3.66994 132.368 1.84766 132.368 1.84766C126.736 -1.4656 110.501 0.688017 110.501 0.688017C106.856 1.35067 107.519 2.67597 107.519 2.67597C107.519 5.6579 112.986 10.6278 112.986 10.6278C108.347 16.5916 114.642 19.5735 114.642 19.5735L113.648 22.0584L103.709 21.7271C101.555 21.7271 101.721 22.0584 101.721 22.0584C101.886 26.0343 108.347 28.5193 108.347 28.5193C110.832 29.0163 110.832 31.6669 110.832 31.6669C110.335 37.2994 115.636 40.2813 115.636 40.2813V48.8958C115.139 49.3928 114.642 50.3868 114.642 50.3868L111.992 43.5946H106.359L106.194 48.7301L112.323 52.209C111.163 54.0313 111.495 57.5103 111.495 57.5103C109.01 59.3325 108.182 61.1548 108.182 61.1548L108.347 65.6277C109.838 67.1187 110.832 66.953 110.832 66.953V70.7434C108.087 71.3981 105.397 72.237 102.818 73.2999C95.9596 76.1254 91.5821 81.5194 90.9804 87.4674C89.2337 88.4415 87.6367 89.556 86.1418 90.8031L85.7998 90.4864C85.7998 90.4864 81.2965 90.3446 78.5107 97.4442C78.5107 97.4442 73.0094 98.7815 73.1525 104.293C73.1525 104.293 67.7493 106.365 71.0904 110.104C71.0904 110.104 75.2545 113.28 76.8448 106.19C76.8448 106.19 81.657 107.09 81.9181 101.148C82.0625 100.977 82.2044 100.795 82.3488 100.626C83.5574 100.303 87.1941 98.9511 88.7818 94.3139C89.6114 93.6327 90.4676 92.9833 91.3476 92.363C91.9784 94.8798 93.3077 97.3992 95.4335 99.7768C99.8255 104.69 107.434 106.503 113.55 107.918C121.207 109.687 129.707 110.289 137.463 108.903C146.35 107.315 163.946 98.7921 158.767 86.7597C155.156 78.3692 145.722 75.8352 136.25 75.0917C135.235 74.2077 134.085 73.4152 132.831 72.7194C144.973 72.6465 156.089 72.7035 165.692 63.5496ZM138.001 45.0856L139.657 43.9259L138.626 42.9783C138.84 42.875 139.048 42.7292 139.241 42.5145C144.561 36.6301 149.255 30.1017 155.634 25.2816C162.987 19.7286 173.824 17.8745 175.172 29.2442C177.007 44.6999 166.436 63.3018 151.241 67.6528C144.289 69.6434 136.658 68.9966 129.32 68.88L129.386 66.786L131.374 65.7921V62.3145C131.374 59.3325 128.392 57.8416 128.392 57.8416C128.558 53.0374 127.73 52.0434 127.73 52.0434L138.001 45.0856ZM101.311 78.5428C100.303 80.1278 99.628 81.8521 99.3935 83.6757C97.9542 84.3251 96.4685 84.9215 95.0213 85.5337C95.9702 82.5094 98.5135 80.2246 101.311 78.5428ZM154.685 87.258C158.136 92.5406 151.632 98.3096 147.902 100.91C135.606 109.481 112.693 106.463 100.553 98.918C97.428 96.9764 95.2744 93.7413 94.7363 90.1922C96.2684 89.3082 97.8972 88.4918 99.6254 87.7337C101.347 94.3708 109.926 96.7723 120.275 96.7723C131.865 96.7723 141.258 93.7758 141.258 85.1759C141.258 83.3205 140.799 81.5499 139.997 79.8999C140.339 79.9317 140.685 79.9662 141.024 79.998C146.493 80.5122 151.579 82.5015 154.685 87.258Z" fill="white"/>
<path d="M21.76 156.32C21.76 157.867 21.36 159.333 20.56 160.72C19.7867 162.107 18.5733 163.24 16.92 164.12C15.2933 164.973 13.1733 165.4 10.56 165.4C9.25333 165.4 8.10667 165.333 7.12 165.2C6.16 165.093 5.25333 164.907 4.4 164.64C3.54667 164.373 2.66667 164.027 1.76 163.6V156.72C3.30667 157.493 4.86667 158.093 6.44 158.52C8.01333 158.92 9.44 159.12 10.72 159.12C11.8667 159.12 12.7067 158.92 13.24 158.52C13.7733 158.12 14.04 157.613 14.04 157C14.04 156.253 13.64 155.653 12.84 155.2C12.0667 154.72 10.7467 154.067 8.88 153.24C7.46667 152.573 6.24 151.88 5.2 151.16C4.16 150.413 3.36 149.507 2.8 148.44C2.24 147.373 1.96 146.027 1.96 144.4C1.96 142.56 2.41333 141.027 3.32 139.8C4.22667 138.547 5.48 137.613 7.08 137C8.70667 136.36 10.5867 136.04 12.72 136.04C14.5867 136.04 16.2667 136.253 17.76 136.68C19.2533 137.08 20.5867 137.547 21.76 138.08L19.4 144.04C18.1733 143.48 16.96 143.04 15.76 142.72C14.5867 142.373 13.4933 142.2 12.48 142.2C11.4933 142.2 10.76 142.373 10.28 142.72C9.82667 143.067 9.6 143.507 9.6 144.04C9.6 144.493 9.77333 144.893 10.12 145.24C10.4667 145.587 11.04 145.973 11.84 146.4C12.6667 146.8 13.7867 147.32 15.2 147.96C16.5867 148.573 17.76 149.253 18.72 150C19.7067 150.72 20.4533 151.587 20.96 152.6C21.4933 153.587 21.76 154.827 21.76 156.32ZM33.3659 138.92C33.3659 140.547 33.3259 141.92 33.2459 143.04C33.1659 144.16 33.0993 145.013 33.0459 145.6H33.4059C34.1259 144.453 34.9926 143.653 36.0059 143.2C37.0193 142.72 38.1793 142.48 39.4859 142.48C40.9526 142.48 42.2726 142.76 43.4459 143.32C44.6193 143.88 45.5526 144.76 46.2459 145.96C46.9659 147.133 47.3259 148.68 47.3259 150.6V165H39.6459V152.92C39.6459 149.96 38.7659 148.48 37.0059 148.48C35.6193 148.48 34.6593 149.067 34.1259 150.24C33.6193 151.413 33.3659 153.093 33.3659 155.28V165H25.7259V134.6H33.3659V138.92ZM56.4028 133.96C57.4961 133.96 58.4428 134.187 59.2428 134.64C60.0695 135.093 60.4828 136 60.4828 137.36C60.4828 138.667 60.0695 139.56 59.2428 140.04C58.4428 140.493 57.4961 140.72 56.4028 140.72C55.2828 140.72 54.3228 140.493 53.5228 140.04C52.7495 139.56 52.3628 138.667 52.3628 137.36C52.3628 136 52.7495 135.093 53.5228 134.64C54.3228 134.187 55.2828 133.96 56.4028 133.96ZM60.2028 142.88V165H52.5628V142.88H60.2028ZM81.9706 158.2C81.9706 159.587 81.6506 160.827 81.0106 161.92C80.3973 163.013 79.3973 163.867 78.0106 164.48C76.6506 165.093 74.8506 165.4 72.6106 165.4C71.0373 165.4 69.624 165.307 68.3706 165.12C67.144 164.96 65.8906 164.64 64.6106 164.16V158.04C66.024 158.68 67.4506 159.147 68.8906 159.44C70.3306 159.707 71.464 159.84 72.2906 159.84C73.944 159.84 74.7706 159.467 74.7706 158.72C74.7706 158.4 74.6373 158.12 74.3706 157.88C74.104 157.64 73.624 157.373 72.9306 157.08C72.264 156.787 71.304 156.387 70.0506 155.88C68.2106 155.107 66.8373 154.227 65.9306 153.24C65.024 152.227 64.5706 150.813 64.5706 149C64.5706 146.84 65.3973 145.213 67.0506 144.12C68.7306 143.027 70.944 142.48 73.6906 142.48C75.1573 142.48 76.5306 142.64 77.8106 142.96C79.0906 143.28 80.424 143.747 81.8106 144.36L79.7306 149.28C78.6373 148.773 77.5306 148.373 76.4106 148.08C75.2906 147.787 74.3973 147.64 73.7306 147.64C72.4773 147.64 71.8506 147.947 71.8506 148.56C71.8506 148.827 71.9573 149.067 72.1706 149.28C72.4106 149.493 72.8506 149.733 73.4906 150C74.1306 150.267 75.064 150.653 76.2906 151.16C77.5706 151.667 78.624 152.227 79.4506 152.84C80.304 153.427 80.9306 154.147 81.3306 155C81.7573 155.827 81.9706 156.893 81.9706 158.2ZM93.8347 138.92C93.8347 140.547 93.7947 141.92 93.7147 143.04C93.6347 144.16 93.568 145.013 93.5147 145.6H93.8747C94.5947 144.453 95.4614 143.653 96.4747 143.2C97.488 142.72 98.648 142.48 99.9547 142.48C101.421 142.48 102.741 142.76 103.915 143.32C105.088 143.88 106.021 144.76 106.715 145.96C107.435 147.133 107.795 148.68 107.795 150.6V165H100.115V152.92C100.115 149.96 99.2347 148.48 97.4747 148.48C96.088 148.48 95.128 149.067 94.5947 150.24C94.088 151.413 93.8347 153.093 93.8347 155.28V165H86.1947V134.6H93.8347V138.92ZM123.792 142.48C126.592 142.48 128.778 143.173 130.352 144.56C131.925 145.947 132.712 147.92 132.712 150.48V165H127.432L125.952 162.08H125.792C125.178 162.853 124.538 163.493 123.872 164C123.232 164.48 122.485 164.827 121.632 165.04C120.778 165.28 119.738 165.4 118.512 165.4C116.592 165.4 114.992 164.813 113.712 163.64C112.432 162.467 111.792 160.667 111.792 158.24C111.792 155.867 112.605 154.107 114.232 152.96C115.885 151.813 118.272 151.173 121.392 151.04L125.072 150.92V150.6C125.072 149.613 124.832 148.92 124.352 148.52C123.872 148.093 123.218 147.88 122.392 147.88C121.512 147.88 120.538 148.04 119.472 148.36C118.405 148.653 117.325 149.04 116.232 149.52L114.032 144.48C115.312 143.813 116.752 143.32 118.352 143C119.978 142.653 121.792 142.48 123.792 142.48ZM123.352 155.2C121.965 155.253 120.978 155.507 120.392 155.96C119.832 156.387 119.552 157 119.552 157.8C119.552 158.547 119.752 159.107 120.152 159.48C120.552 159.827 121.085 160 121.752 160C122.685 160 123.472 159.707 124.112 159.12C124.778 158.533 125.112 157.773 125.112 156.84V155.12L123.352 155.2ZM151.433 142.48C153.887 142.48 155.807 143.467 157.193 145.44C158.58 147.387 159.273 150.2 159.273 153.88C159.273 156.387 158.913 158.507 158.193 160.24C157.5 161.947 156.54 163.24 155.313 164.12C154.113 164.973 152.74 165.4 151.193 165.4C149.647 165.4 148.433 165.12 147.553 164.56C146.7 164 146.033 163.427 145.553 162.84H145.313C145.367 163.347 145.42 163.893 145.473 164.48C145.527 165.067 145.553 165.747 145.553 166.52V174.6H137.913V142.88H144.113L145.193 145.68H145.553C146.087 144.827 146.807 144.08 147.713 143.44C148.647 142.8 149.887 142.48 151.433 142.48ZM148.553 148.48C147.433 148.48 146.66 148.88 146.233 149.68C145.833 150.48 145.607 151.667 145.553 153.24V153.84C145.553 155.6 145.767 156.947 146.193 157.88C146.62 158.787 147.42 159.24 148.593 159.24C149.553 159.24 150.273 158.827 150.753 158C151.26 157.147 151.513 155.747 151.513 153.8C151.513 151.853 151.26 150.48 150.753 149.68C150.247 148.88 149.513 148.48 148.553 148.48ZM173.577 142.48C176.803 142.48 179.35 143.32 181.217 145C183.083 146.68 184.017 149.213 184.017 152.6V156H170.377C170.43 157.147 170.857 158.093 171.657 158.84C172.483 159.587 173.67 159.96 175.217 159.96C176.603 159.96 177.87 159.827 179.017 159.56C180.163 159.293 181.35 158.867 182.577 158.28V163.76C181.51 164.32 180.337 164.733 179.057 165C177.803 165.267 176.217 165.4 174.297 165.4C172.057 165.4 170.057 165.013 168.297 164.24C166.563 163.44 165.19 162.2 164.177 160.52C163.163 158.84 162.657 156.693 162.657 154.08C162.657 151.413 163.11 149.227 164.017 147.52C164.95 145.813 166.23 144.547 167.857 143.72C169.51 142.893 171.417 142.48 173.577 142.48ZM173.857 147.68C172.95 147.68 172.19 147.96 171.577 148.52C170.99 149.08 170.643 149.973 170.537 151.2H177.097C177.07 150.213 176.777 149.387 176.217 148.72C175.683 148.027 174.897 147.68 173.857 147.68ZM195.223 165.4C192.956 165.4 191.076 164.427 189.583 162.48C188.116 160.533 187.383 157.693 187.383 153.96C187.383 150.173 188.13 147.32 189.623 145.4C191.143 143.453 193.103 142.48 195.503 142.48C196.996 142.48 198.183 142.787 199.063 143.4C199.97 144.013 200.716 144.787 201.303 145.72H201.463C201.356 145.16 201.263 144.387 201.183 143.4C201.13 142.413 201.103 141.453 201.103 140.52V134.6H208.783V165H203.023L201.383 162.2H201.103C200.57 163.08 199.836 163.84 198.903 164.48C197.97 165.093 196.743 165.4 195.223 165.4ZM198.343 159.36C199.57 159.36 200.436 158.973 200.943 158.2C201.45 157.427 201.716 156.24 201.743 154.64V154.04C201.743 152.307 201.49 150.973 200.983 150.04C200.503 149.107 199.596 148.64 198.263 148.64C197.356 148.64 196.596 149.08 195.983 149.96C195.396 150.84 195.103 152.213 195.103 154.08C195.103 155.92 195.396 157.267 195.983 158.12C196.596 158.947 197.383 159.36 198.343 159.36ZM217.926 133.96C219.02 133.96 219.966 134.187 220.766 134.64C221.593 135.093 222.006 136 222.006 137.36C222.006 138.667 221.593 139.56 220.766 140.04C219.966 140.493 219.02 140.72 217.926 140.72C216.806 140.72 215.846 140.493 215.046 140.04C214.273 139.56 213.886 138.667 213.886 137.36C213.886 136 214.273 135.093 215.046 134.64C215.846 134.187 216.806 133.96 217.926 133.96ZM221.726 142.88V165H214.086V142.88H221.726ZM237.854 142.48C240.654 142.48 242.841 143.173 244.414 144.56C245.987 145.947 246.774 147.92 246.774 150.48V165H241.494L240.014 162.08H239.854C239.241 162.853 238.601 163.493 237.934 164C237.294 164.48 236.547 164.827 235.694 165.04C234.841 165.28 233.801 165.4 232.574 165.4C230.654 165.4 229.054 164.813 227.774 163.64C226.494 162.467 225.854 160.667 225.854 158.24C225.854 155.867 226.667 154.107 228.294 152.96C229.947 151.813 232.334 151.173 235.454 151.04L239.134 150.92V150.6C239.134 149.613 238.894 148.92 238.414 148.52C237.934 148.093 237.281 147.88 236.454 147.88C235.574 147.88 234.601 148.04 233.534 148.36C232.467 148.653 231.387 149.04 230.294 149.52L228.094 144.48C229.374 143.813 230.814 143.32 232.414 143C234.041 142.653 235.854 142.48 237.854 142.48ZM237.414 155.2C236.027 155.253 235.041 155.507 234.454 155.96C233.894 156.387 233.614 157 233.614 157.8C233.614 158.547 233.814 159.107 234.214 159.48C234.614 159.827 235.147 160 235.814 160C236.747 160 237.534 159.707 238.174 159.12C238.841 158.533 239.174 157.773 239.174 156.84V155.12L237.414 155.2Z" fill="white"/>
</svg>
